<svg width="26" height="29" viewBox="0 0 26 29" fill="none" xmlns="http://www.w3.org/2000/svg">
<path d="M21.5955 15.7266V23.2266C21.5955 23.4974 21.4965 23.7318 21.2986 23.9297C21.1007 24.1276 20.8663 24.2266 20.5955 24.2266H14.5955V18.2266H10.5955V24.2266H4.59549C4.32465 24.2266 4.09028 24.1276 3.89236 23.9297C3.69444 23.7318 3.59549 23.4974 3.59549 23.2266V15.7266C3.59549 15.7161 3.59809 15.7005 3.6033 15.6797C3.60851 15.6589 3.61111 15.6432 3.61111 15.6328L12.5955 8.22656L21.5799 15.6328C21.5903 15.6536 21.5955 15.6849 21.5955 15.7266ZM25.0799 14.6484L24.1111 15.8047C24.0278 15.8984 23.9184 15.9557 23.783 15.9766H23.7361C23.6007 15.9766 23.4913 15.9401 23.408 15.8672L12.5955 6.85156L1.78299 15.8672C1.65799 15.9505 1.53299 15.987 1.40799 15.9766C1.27257 15.9557 1.16319 15.8984 1.07986 15.8047L0.111111 14.6484C0.0277778 14.5443 -0.00868056 14.4219 0.00173611 14.2812C0.0121528 14.1406 0.0694444 14.0286 0.173611 13.9453L11.408 4.58594C11.7413 4.3151 12.1372 4.17969 12.5955 4.17969C13.0538 4.17969 13.4497 4.3151 13.783 4.58594L17.5955 7.77344V4.72656C17.5955 4.58073 17.6424 4.46094 17.7361 4.36719C17.8299 4.27344 17.9497 4.22656 18.0955 4.22656H21.0955C21.2413 4.22656 21.3611 4.27344 21.4549 4.36719C21.5486 4.46094 21.5955 4.58073 21.5955 4.72656V11.1016L25.0174 13.9453C25.1215 14.0286 25.1788 14.1406 25.1892 14.2812C25.1997 14.4219 25.1632 14.5443 25.0799 14.6484Z" fill="#FBBE3F"/>
</svg>
