<svg width="37" height="41" viewBox="0 0 37 41" fill="none" xmlns="http://www.w3.org/2000/svg">
<g clip-path="url(#clip0_52_1998)">
<path d="M35.7349 0.246902C36.0618 0.54612 36.2253 0.942581 36.2253 1.43629V33.0334C36.2253 33.3327 36.1611 33.6019 36.0327 33.8413C35.9042 34.0807 35.7349 34.2527 35.5247 34.3575L24.3151 40.1024C24.0348 40.267 23.7546 40.267 23.4744 40.1024L12.6851 34.5819L1.89582 40.1024C1.77905 40.1772 1.63893 40.2146 1.47546 40.2146C1.2536 40.2146 1.04342 40.1323 0.844914 39.9678C0.517966 39.6685 0.354492 39.2721 0.354492 38.7784V7.18122C0.354492 6.88201 0.418714 6.61271 0.547158 6.37334C0.675601 6.13397 0.844914 5.96192 1.05509 5.85719L12.2647 0.112255C12.545 -0.0523109 12.8252 -0.0523109 13.1054 0.112255L23.8947 5.63278L34.684 0.112255C35.0576 -0.0822334 35.408 -0.0373497 35.7349 0.246902ZM13.2456 3.27646V31.7767L23.3342 36.9382V8.43793L13.2456 3.27646ZM2.59642 8.14619V36.6465L12.1246 31.7767V3.27646L2.59642 8.14619ZM33.9834 32.0685V3.5682L24.4552 8.43793V36.9382L33.9834 32.0685Z" fill="#FBBE3F"/>
</g>
<defs>
<clipPath id="clip0_52_1998">
<rect width="36.58" height="41" fill="white" transform="matrix(1 0 0 -1 0 41)"/>
</clipPath>
</defs>
</svg>
