<svg width="11" height="12" viewBox="0 0 11 12" fill="none" xmlns="http://www.w3.org/2000/svg">
<g clip-path="url(#clip0_2_348)">
<path d="M10.384 6.30541C10.384 6.54187 10.303 6.7411 10.141 6.90311L5.86512 11.179C5.69435 11.341 5.49512 11.422 5.26742 11.422C5.04411 11.422 4.84706 11.341 4.67629 11.179L4.18368 10.6864C4.01729 10.52 3.93409 10.3207 3.93409 10.0887C3.93409 9.85659 4.01729 9.65736 4.18368 9.49096L6.10815 7.5665H1.48417C1.25648 7.5665 1.07147 7.48439 0.929163 7.32019C0.786853 7.15599 0.715698 6.95785 0.715698 6.72577V5.88505C0.715698 5.65298 0.786853 5.45484 0.929163 5.29063C1.07147 5.12643 1.25648 5.04433 1.48417 5.04433H6.10815L4.18368 3.11329C4.01729 2.95566 3.93409 2.75861 3.93409 2.52216C3.93409 2.28571 4.01729 2.08866 4.18368 1.93103L4.67629 1.43842C4.84268 1.27202 5.03973 1.18883 5.26742 1.18883C5.4995 1.18883 5.69873 1.27202 5.86512 1.43842L10.141 5.71428C10.303 5.86754 10.384 6.06458 10.384 6.30541Z" fill="#FBBE3F"/>
</g>
<defs>
<clipPath id="clip0_2_348">
<rect width="10.3" height="12" fill="white" transform="matrix(1 0 0 -1 0.609985 12)"/>
</clipPath>
</defs>
</svg>
