<svg width="37" height="40" viewBox="0 0 37 40" fill="none" xmlns="http://www.w3.org/2000/svg">
<path d="M36.6667 33.2552C36.6667 35.3385 36.033 36.9835 34.7656 38.1901C33.4983 39.3967 31.8142 40 29.7135 40H6.95313C4.85243 40 3.1684 39.3967 1.90104 38.1901C0.633681 36.9835 0 35.3385 0 33.2552C0 32.3351 0.0303819 31.4366 0.0911458 30.5599C0.15191 29.6832 0.273438 28.737 0.455729 27.7214C0.638021 26.7057 0.868056 25.7639 1.14583 24.8958C1.42361 24.0278 1.79688 23.1814 2.26562 22.3568C2.73438 21.5321 3.27257 20.829 3.88021 20.2474C4.48785 19.6658 5.23003 19.2014 6.10677 18.8542C6.98351 18.5069 7.95139 18.3333 9.01042 18.3333C9.16667 18.3333 9.53125 18.52 10.1042 18.8932C10.6771 19.2665 11.3238 19.6832 12.0443 20.1432C12.7648 20.6033 13.7023 21.02 14.8568 21.3932C16.0113 21.7665 17.1701 21.9531 18.3333 21.9531C19.4965 21.9531 20.6554 21.7665 21.8099 21.3932C22.9644 21.02 23.9019 20.6033 24.6224 20.1432C25.3429 19.6832 25.9896 19.2665 26.5625 18.8932C27.1354 18.52 27.5 18.3333 27.6563 18.3333C28.7153 18.3333 29.6832 18.5069 30.5599 18.8542C31.4366 19.2014 32.1788 19.6658 32.7865 20.2474C33.3941 20.829 33.9323 21.5321 34.401 22.3568C34.8698 23.1814 35.2431 24.0278 35.5208 24.8958C35.7986 25.7639 36.0286 26.7057 36.2109 27.7214C36.3932 28.737 36.5148 29.6832 36.5755 30.5599C36.6363 31.4366 36.6667 32.3351 36.6667 33.2552ZM25.4036 2.92969C25.4036 2.92969 25.8919 3.41797 26.8685 4.39453C27.8451 5.37109 28.3333 7.23959 28.3333 10C28.3333 12.7604 27.3568 15.1172 25.4036 17.0703C23.4505 19.0234 21.0938 20 18.3333 20C15.5729 20 13.2161 19.0234 11.263 17.0703C9.3099 15.1172 8.33333 12.7604 8.33333 10C8.33333 7.23959 9.3099 4.88281 11.263 2.92969C13.2161 0.976562 15.5729 0 18.3333 0C21.0938 0 23.4505 0.976562 25.4036 2.92969Z" fill="#FBBE3F"/>
</svg>
