<svg width="23" height="20" viewBox="0 0 23 20" fill="none" xmlns="http://www.w3.org/2000/svg">
<path d="M10.2923 12.0029V17.1491C10.2923 17.8638 10.0421 18.4714 9.54183 18.9717C9.04151 19.472 8.43397 19.7222 7.71923 19.7222H2.57308C1.85833 19.7222 1.2508 19.472 0.750481 18.9717C0.25016 18.4714 0 17.8638 0 17.1491V7.71448C0 6.78531 0.180919 5.89858 0.542758 5.05429C0.904597 4.21 1.39375 3.47962 2.01022 2.86315C2.62668 2.24669 3.35706 1.75753 4.20135 1.3957C5.04564 1.03386 5.93237 0.852938 6.86154 0.852938H7.71923C7.95152 0.852938 8.15254 0.937813 8.3223 1.10756C8.49205 1.27732 8.57692 1.47834 8.57692 1.71063V3.42601C8.57692 3.65831 8.49205 3.85933 8.3223 4.02908C8.15254 4.19883 7.95152 4.28371 7.71923 4.28371H6.86154C5.9145 4.28371 5.10595 4.61874 4.43588 5.28881C3.76581 5.95889 3.43077 6.76744 3.43077 7.71448V8.14332C3.43077 8.50069 3.55585 8.80446 3.80601 9.05462C4.05617 9.30478 4.35994 9.42986 4.71731 9.42986H7.71923C8.43397 9.42986 9.04151 9.68002 9.54183 10.1803C10.0421 10.6807 10.2923 11.2882 10.2923 12.0029ZM22.3 12.0029V17.1491C22.3 17.8638 22.0498 18.4714 21.5495 18.9717C21.0492 19.472 20.4417 19.7222 19.7269 19.7222H14.5808C13.866 19.7222 13.2585 19.472 12.7582 18.9717C12.2579 18.4714 12.0077 17.8638 12.0077 17.1491V7.71448C12.0077 6.78531 12.1886 5.89858 12.5505 5.05429C12.9123 4.21 13.4014 3.47962 14.0179 2.86315C14.6344 2.24669 15.3648 1.75753 16.209 1.3957C17.0533 1.03386 17.9401 0.852938 18.8692 0.852938H19.7269C19.9592 0.852938 20.1602 0.937813 20.33 1.10756C20.4997 1.27732 20.5846 1.47834 20.5846 1.71063V3.42601C20.5846 3.65831 20.4997 3.85933 20.33 4.02908C20.1602 4.19883 19.9592 4.28371 19.7269 4.28371H18.8692C17.9222 4.28371 17.1136 4.61874 16.4436 5.28881C15.7735 5.95889 15.4385 6.76744 15.4385 7.71448V8.14332C15.4385 8.50069 15.5635 8.80446 15.8137 9.05462C16.0639 9.30478 16.3676 9.42986 16.725 9.42986H19.7269C20.4417 9.42986 21.0492 9.68002 21.5495 10.1803C22.0498 10.6807 22.3 11.2882 22.3 12.0029Z" fill="#B8B8B8"/>
</svg>
