<svg width="38" height="41" viewBox="0 0 38 41" fill="none" xmlns="http://www.w3.org/2000/svg">
<path d="M2.87247 37.3421H9.33552V30.8791H2.87247V37.3421ZM10.7718 37.3421H17.9529V30.8791H10.7718V37.3421ZM2.87247 29.4428H9.33552V22.2617H2.87247V29.4428ZM10.7718 29.4428H17.9529V22.2617H10.7718V29.4428ZM2.87247 20.8254H9.33552V14.3624H2.87247V20.8254ZM19.3892 37.3421H26.5703V30.8791H19.3892V37.3421ZM10.7718 20.8254H17.9529V14.3624H10.7718V20.8254ZM28.0066 37.3421H34.4696V30.8791H28.0066V37.3421ZM19.3892 29.4428H26.5703V22.2617H19.3892V29.4428ZM11.4899 10.0537V3.59062C11.4899 3.39613 11.4188 3.22783 11.2767 3.0857C11.1346 2.94357 10.9662 2.87251 10.7718 2.87251H9.33552C9.14103 2.87251 8.97272 2.94357 8.8306 3.0857C8.68847 3.22783 8.6174 3.39613 8.6174 3.59062V10.0537C8.6174 10.2482 8.68847 10.4165 8.8306 10.5586C8.97272 10.7007 9.14103 10.7718 9.33552 10.7718H10.7718C10.9662 10.7718 11.1346 10.7007 11.2767 10.5586C11.4188 10.4165 11.4899 10.2482 11.4899 10.0537ZM28.0066 29.4428H34.4696V22.2617H28.0066V29.4428ZM19.3892 20.8254H26.5703V14.3624H19.3892V20.8254ZM28.0066 20.8254H34.4696V14.3624H28.0066V20.8254ZM28.7247 10.0537V3.59062C28.7247 3.39613 28.6536 3.22783 28.5115 3.0857C28.3694 2.94357 28.2011 2.87251 28.0066 2.87251H26.5703C26.3758 2.87251 26.2075 2.94357 26.0654 3.0857C25.9233 3.22783 25.8522 3.39613 25.8522 3.59062V10.0537C25.8522 10.2482 25.9233 10.4165 26.0654 10.5586C26.2075 10.7007 26.3758 10.7718 26.5703 10.7718H28.0066C28.2011 10.7718 28.3694 10.7007 28.5115 10.5586C28.6536 10.4165 28.7247 10.2482 28.7247 10.0537ZM37.3421 8.61744V37.3421C37.3421 38.1201 37.0578 38.7933 36.4893 39.3618C35.9208 39.9303 35.2476 40.2146 34.4696 40.2146H2.87247C2.09451 40.2146 1.42127 39.9303 0.852764 39.3618C0.284255 38.7933 0 38.1201 0 37.3421V8.61744C0 7.83949 0.284255 7.16625 0.852764 6.59774C1.42127 6.02923 2.09451 5.74498 2.87247 5.74498H5.74494V3.59062C5.74494 2.60321 6.09652 1.75793 6.79967 1.05477C7.50283 0.351616 8.34811 3.8147e-05 9.33552 3.8147e-05H10.7718C11.7592 3.8147e-05 12.6045 0.351616 13.3076 1.05477C14.0108 1.75793 14.3623 2.60321 14.3623 3.59062V5.74498H22.9797V3.59062C22.9797 2.60321 23.3313 1.75793 24.0345 1.05477C24.7376 0.351616 25.5829 3.8147e-05 26.5703 3.8147e-05H28.0066C28.994 3.8147e-05 29.8393 0.351616 30.5424 1.05477C31.2456 1.75793 31.5972 2.60321 31.5972 3.59062V5.74498H34.4696C35.2476 5.74498 35.9208 6.02923 36.4893 6.59774C37.0578 7.16625 37.3421 7.83949 37.3421 8.61744Z" fill="#FBBE3F"/>
</svg>
