<svg width="34" height="31" viewBox="0 0 34 31" fill="none" xmlns="http://www.w3.org/2000/svg">
<g clip-path="url(#clip0_2_401)">
<path d="M10.8527 15.2068C9.04367 15.2627 7.56409 15.9773 6.41392 17.3508H4.16942C3.25376 17.3508 2.48326 17.1247 1.85792 16.6725C1.23259 16.2202 0.919922 15.5586 0.919922 14.6876C0.919922 10.7458 1.61226 8.77484 2.99692 8.77484C3.06392 8.77484 3.3068 8.89209 3.72555 9.12659C4.1443 9.36109 4.68867 9.59838 5.35867 9.83847C6.02867 10.0786 6.69309 10.1986 7.35192 10.1986C8.10009 10.1986 8.84267 10.0702 9.57967 9.81334C9.52384 10.2265 9.49592 10.595 9.49592 10.9188C9.49592 12.471 9.94817 13.9003 10.8527 15.2068ZM28.7919 25.8766C28.7919 27.2166 28.3843 28.2746 27.5692 29.0507C26.754 29.8268 25.6708 30.2148 24.3197 30.2148H9.68017C8.32901 30.2148 7.24584 29.8268 6.43067 29.0507C5.61551 28.2746 5.20792 27.2166 5.20792 25.8766C5.20792 25.2848 5.22746 24.7069 5.26655 24.143C5.30563 23.5791 5.3838 22.9705 5.50105 22.3172C5.6183 21.664 5.76626 21.0582 5.94492 20.4998C6.12359 19.9415 6.36367 19.3971 6.66517 18.8667C6.96667 18.3363 7.31284 17.8841 7.70367 17.51C8.09451 17.1359 8.57188 16.8372 9.1358 16.6138C9.69971 16.3905 10.3223 16.2788 11.0034 16.2788C11.1151 16.2788 11.3552 16.3989 11.7237 16.639C12.0922 16.8791 12.4998 17.1471 12.9464 17.443C13.3931 17.7389 13.9905 18.0069 14.7387 18.247C15.4868 18.4871 16.2406 18.6071 16.9999 18.6071C17.7593 18.6071 18.513 18.4871 19.2612 18.247C20.0093 18.0069 20.6068 17.7389 21.0534 17.443C21.5001 17.1471 21.9077 16.8791 22.2762 16.639C22.6447 16.3989 22.8848 16.2788 22.9964 16.2788C23.6776 16.2788 24.3001 16.3905 24.864 16.6138C25.428 16.8372 25.9053 17.1359 26.2962 17.51C26.687 17.8841 27.0332 18.3363 27.3347 18.8667C27.6362 19.3971 27.8763 19.9415 28.0549 20.4998C28.2336 21.0582 28.3815 21.664 28.4988 22.3172C28.616 22.9705 28.6942 23.5791 28.7333 24.143C28.7724 24.7069 28.7919 25.2848 28.7919 25.8766ZM10.3837 1.45509C10.3837 1.45509 10.593 1.66447 11.0118 2.08322C11.4305 2.50197 11.6399 3.30318 11.6399 4.48684C11.6399 5.67051 11.2212 6.68109 10.3837 7.51859C9.54617 8.35609 8.53559 8.77484 7.35192 8.77484C6.16826 8.77484 5.15767 8.35609 4.32017 7.51859C3.48267 6.68109 3.06392 5.67051 3.06392 4.48684C3.06392 3.30318 3.48267 2.29259 4.32017 1.45509C5.15767 0.617594 6.16826 0.198843 7.35192 0.198843C8.53559 0.198843 9.54617 0.617594 10.3837 1.45509ZM21.5475 6.37122C21.5475 6.37122 21.8616 6.68528 22.4897 7.31341C23.1179 7.94153 23.4319 9.14334 23.4319 10.9188C23.4319 12.6943 22.8038 14.2102 21.5475 15.4665C20.2913 16.7227 18.7754 17.3508 16.9999 17.3508C15.2244 17.3508 13.7085 16.7227 12.4523 15.4665C11.196 14.2102 10.5679 12.6943 10.5679 10.9188C10.5679 9.14334 11.196 7.62747 12.4523 6.37122C13.7085 5.11497 15.2244 4.48684 16.9999 4.48684C18.7754 4.48684 20.2913 5.11497 21.5475 6.37122ZM33.0799 14.6876C33.0799 15.5586 32.7673 16.2202 32.1419 16.6725C31.5166 17.1247 30.7461 17.3508 29.8304 17.3508H27.5859C26.4358 15.9773 24.9562 15.2627 23.1472 15.2068C24.0517 13.9003 24.5039 12.471 24.5039 10.9188C24.5039 10.595 24.476 10.2265 24.4202 9.81334C25.1572 10.0702 25.8998 10.1986 26.6479 10.1986C27.3068 10.1986 27.9712 10.0786 28.6412 9.83847C29.3112 9.59838 29.8555 9.36109 30.2743 9.12659C30.693 8.89209 30.9359 8.77484 31.0029 8.77484C32.3876 8.77484 33.0799 10.7458 33.0799 14.6876ZM29.6797 1.45509C29.6797 1.45509 29.889 1.66447 30.3078 2.08322C30.7265 2.50197 30.9359 3.30318 30.9359 4.48684C30.9359 5.67051 30.5172 6.68109 29.6797 7.51859C28.8422 8.35609 27.8316 8.77484 26.6479 8.77484C25.4643 8.77484 24.4537 8.35609 23.6162 7.51859C22.7787 6.68109 22.3599 5.67051 22.3599 4.48684C22.3599 3.30318 22.7787 2.29259 23.6162 1.45509C24.4537 0.617594 25.4643 0.198843 26.6479 0.198843C27.8316 0.198843 28.8422 0.617594 29.6797 1.45509Z" fill="#FBBE3F"/>
</g>
<defs>
<clipPath id="clip0_2_401">
<rect width="32.16" height="31" fill="white" transform="matrix(1 0 0 -1 0.919922 31)"/>
</clipPath>
</defs>
</svg>
