<svg width="26" height="31" viewBox="0 0 26 31" fill="none" xmlns="http://www.w3.org/2000/svg">
<path d="M23.505 0.203537C23.7952 0.203537 24.0464 0.309587 24.2585 0.521688C24.4706 0.733789 24.5767 0.984961 24.5767 1.2752V29.1385C24.5767 29.4288 24.4706 29.68 24.2585 29.8921C24.0464 30.1042 23.7952 30.2102 23.505 30.2102H2.07167C1.78142 30.2102 1.53025 30.1042 1.31815 29.8921C1.10605 29.68 1 29.4288 1 29.1385V1.2752C1 0.984961 1.10605 0.733789 1.31815 0.521688C1.53025 0.309587 1.78142 0.203537 2.07167 0.203537H23.505ZM9.57333 5.02604V6.0977C9.57333 6.25399 9.62357 6.38237 9.72404 6.48283C9.82451 6.5833 9.95288 6.63354 10.1092 6.63354H11.1808C11.3371 6.63354 11.4655 6.5833 11.566 6.48283C11.6664 6.38237 11.7167 6.25399 11.7167 6.0977V5.02604C11.7167 4.86975 11.6664 4.74137 11.566 4.64091C11.4655 4.54044 11.3371 4.4902 11.1808 4.4902H10.1092C9.95288 4.4902 9.82451 4.54044 9.72404 4.64091C9.62357 4.74137 9.57333 4.86975 9.57333 5.02604ZM9.57333 9.3127V10.3844C9.57333 10.5407 9.62357 10.669 9.72404 10.7695C9.82451 10.87 9.95288 10.9202 10.1092 10.9202H11.1808C11.3371 10.9202 11.4655 10.87 11.566 10.7695C11.6664 10.669 11.7167 10.5407 11.7167 10.3844V9.3127C11.7167 9.15642 11.6664 9.02804 11.566 8.92757C11.4655 8.8271 11.3371 8.77687 11.1808 8.77687H10.1092C9.95288 8.77687 9.82451 8.8271 9.72404 8.92757C9.62357 9.02804 9.57333 9.15642 9.57333 9.3127ZM9.57333 13.5994V14.671C9.57333 14.8273 9.62357 14.9557 9.72404 15.0562C9.82451 15.1566 9.95288 15.2069 10.1092 15.2069H11.1808C11.3371 15.2069 11.4655 15.1566 11.566 15.0562C11.6664 14.9557 11.7167 14.8273 11.7167 14.671V13.5994C11.7167 13.4431 11.6664 13.3147 11.566 13.2142C11.4655 13.1138 11.3371 13.0635 11.1808 13.0635H10.1092C9.95288 13.0635 9.82451 13.1138 9.72404 13.2142C9.62357 13.3147 9.57333 13.4431 9.57333 13.5994ZM9.57333 17.886V18.9577C9.57333 19.114 9.62357 19.2424 9.72404 19.3428C9.82451 19.4433 9.95288 19.4935 10.1092 19.4935H11.1808C11.3371 19.4935 11.4655 19.4433 11.566 19.3428C11.6664 19.2424 11.7167 19.114 11.7167 18.9577V17.886C11.7167 17.7298 11.6664 17.6014 11.566 17.5009C11.4655 17.4004 11.3371 17.3502 11.1808 17.3502H10.1092C9.95288 17.3502 9.82451 17.4004 9.72404 17.5009C9.62357 17.6014 9.57333 17.7298 9.57333 17.886ZM7.43 23.2444V22.1727C7.43 22.0164 7.37977 21.888 7.2793 21.7876C7.17883 21.6871 7.05045 21.6369 6.89417 21.6369H5.8225C5.66622 21.6369 5.53784 21.6871 5.43737 21.7876C5.3369 21.888 5.28667 22.0164 5.28667 22.1727V23.2444C5.28667 23.4007 5.3369 23.529 5.43737 23.6295C5.53784 23.73 5.66622 23.7802 5.8225 23.7802H6.89417C7.05045 23.7802 7.17883 23.73 7.2793 23.6295C7.37977 23.529 7.43 23.4007 7.43 23.2444ZM7.43 18.9577V17.886C7.43 17.7298 7.37977 17.6014 7.2793 17.5009C7.17883 17.4004 7.05045 17.3502 6.89417 17.3502H5.8225C5.66622 17.3502 5.53784 17.4004 5.43737 17.5009C5.3369 17.6014 5.28667 17.7298 5.28667 17.886V18.9577C5.28667 19.114 5.3369 19.2424 5.43737 19.3428C5.53784 19.4433 5.66622 19.4935 5.8225 19.4935H6.89417C7.05045 19.4935 7.17883 19.4433 7.2793 19.3428C7.37977 19.2424 7.43 19.114 7.43 18.9577ZM7.43 14.671V13.5994C7.43 13.4431 7.37977 13.3147 7.2793 13.2142C7.17883 13.1138 7.05045 13.0635 6.89417 13.0635H5.8225C5.66622 13.0635 5.53784 13.1138 5.43737 13.2142C5.3369 13.3147 5.28667 13.4431 5.28667 13.5994V14.671C5.28667 14.8273 5.3369 14.9557 5.43737 15.0562C5.53784 15.1566 5.66622 15.2069 5.8225 15.2069H6.89417C7.05045 15.2069 7.17883 15.1566 7.2793 15.0562C7.37977 14.9557 7.43 14.8273 7.43 14.671ZM7.43 10.3844V9.3127C7.43 9.15642 7.37977 9.02804 7.2793 8.92757C7.17883 8.8271 7.05045 8.77687 6.89417 8.77687H5.8225C5.66622 8.77687 5.53784 8.8271 5.43737 8.92757C5.3369 9.02804 5.28667 9.15642 5.28667 9.3127V10.3844C5.28667 10.5407 5.3369 10.669 5.43737 10.7695C5.53784 10.87 5.66622 10.9202 5.8225 10.9202H6.89417C7.05045 10.9202 7.17883 10.87 7.2793 10.7695C7.37977 10.669 7.43 10.5407 7.43 10.3844ZM7.43 6.0977V5.02604C7.43 4.86975 7.37977 4.74137 7.2793 4.64091C7.17883 4.54044 7.05045 4.4902 6.89417 4.4902H5.8225C5.66622 4.4902 5.53784 4.54044 5.43737 4.64091C5.3369 4.74137 5.28667 4.86975 5.28667 5.02604V6.0977C5.28667 6.25399 5.3369 6.38237 5.43737 6.48283C5.53784 6.5833 5.66622 6.63354 5.8225 6.63354H6.89417C7.05045 6.63354 7.17883 6.5833 7.2793 6.48283C7.37977 6.38237 7.43 6.25399 7.43 6.0977ZM16.0033 27.531V24.316C16.0033 24.1598 15.9531 24.0314 15.8526 23.9309C15.7522 23.8304 15.6238 23.7802 15.4675 23.7802H10.1092C9.95288 23.7802 9.82451 23.8304 9.72404 23.9309C9.62357 24.0314 9.57333 24.1598 9.57333 24.316V27.531C9.57333 27.6873 9.62357 27.8157 9.72404 27.9162C9.82451 28.0166 9.95288 28.0669 10.1092 28.0669H15.4675C15.6238 28.0669 15.7522 28.0166 15.8526 27.9162C15.9531 27.8157 16.0033 27.6873 16.0033 27.531ZM16.0033 18.9577V17.886C16.0033 17.7298 15.9531 17.6014 15.8526 17.5009C15.7522 17.4004 15.6238 17.3502 15.4675 17.3502H14.3958C14.2395 17.3502 14.1112 17.4004 14.0107 17.5009C13.9102 17.6014 13.86 17.7298 13.86 17.886V18.9577C13.86 19.114 13.9102 19.2424 14.0107 19.3428C14.1112 19.4433 14.2395 19.4935 14.3958 19.4935H15.4675C15.6238 19.4935 15.7522 19.4433 15.8526 19.3428C15.9531 19.2424 16.0033 19.114 16.0033 18.9577ZM16.0033 14.671V13.5994C16.0033 13.4431 15.9531 13.3147 15.8526 13.2142C15.7522 13.1138 15.6238 13.0635 15.4675 13.0635H14.3958C14.2395 13.0635 14.1112 13.1138 14.0107 13.2142C13.9102 13.3147 13.86 13.4431 13.86 13.5994V14.671C13.86 14.8273 13.9102 14.9557 14.0107 15.0562C14.1112 15.1566 14.2395 15.2069 14.3958 15.2069H15.4675C15.6238 15.2069 15.7522 15.1566 15.8526 15.0562C15.9531 14.9557 16.0033 14.8273 16.0033 14.671ZM16.0033 10.3844V9.3127C16.0033 9.15642 15.9531 9.02804 15.8526 8.92757C15.7522 8.8271 15.6238 8.77687 15.4675 8.77687H14.3958C14.2395 8.77687 14.1112 8.8271 14.0107 8.92757C13.9102 9.02804 13.86 9.15642 13.86 9.3127V10.3844C13.86 10.5407 13.9102 10.669 14.0107 10.7695C14.1112 10.87 14.2395 10.9202 14.3958 10.9202H15.4675C15.6238 10.9202 15.7522 10.87 15.8526 10.7695C15.9531 10.669 16.0033 10.5407 16.0033 10.3844ZM16.0033 6.0977V5.02604C16.0033 4.86975 15.9531 4.74137 15.8526 4.64091C15.7522 4.54044 15.6238 4.4902 15.4675 4.4902H14.3958C14.2395 4.4902 14.1112 4.54044 14.0107 4.64091C13.9102 4.74137 13.86 4.86975 13.86 5.02604V6.0977C13.86 6.25399 13.9102 6.38237 14.0107 6.48283C14.1112 6.5833 14.2395 6.63354 14.3958 6.63354H15.4675C15.6238 6.63354 15.7522 6.5833 15.8526 6.48283C15.9531 6.38237 16.0033 6.25399 16.0033 6.0977ZM20.29 23.2444V22.1727C20.29 22.0164 20.2398 21.888 20.1393 21.7876C20.0388 21.6871 19.9105 21.6369 19.7542 21.6369H18.6825C18.5262 21.6369 18.3978 21.6871 18.2974 21.7876C18.1969 21.888 18.1467 22.0164 18.1467 22.1727V23.2444C18.1467 23.4007 18.1969 23.529 18.2974 23.6295C18.3978 23.73 18.5262 23.7802 18.6825 23.7802H19.7542C19.9105 23.7802 20.0388 23.73 20.1393 23.6295C20.2398 23.529 20.29 23.4007 20.29 23.2444ZM20.29 18.9577V17.886C20.29 17.7298 20.2398 17.6014 20.1393 17.5009C20.0388 17.4004 19.9105 17.3502 19.7542 17.3502H18.6825C18.5262 17.3502 18.3978 17.4004 18.2974 17.5009C18.1969 17.6014 18.1467 17.7298 18.1467 17.886V18.9577C18.1467 19.114 18.1969 19.2424 18.2974 19.3428C18.3978 19.4433 18.5262 19.4935 18.6825 19.4935H19.7542C19.9105 19.4935 20.0388 19.4433 20.1393 19.3428C20.2398 19.2424 20.29 19.114 20.29 18.9577ZM20.29 14.671V13.5994C20.29 13.4431 20.2398 13.3147 20.1393 13.2142C20.0388 13.1138 19.9105 13.0635 19.7542 13.0635H18.6825C18.5262 13.0635 18.3978 13.1138 18.2974 13.2142C18.1969 13.3147 18.1467 13.4431 18.1467 13.5994V14.671C18.1467 14.8273 18.1969 14.9557 18.2974 15.0562C18.3978 15.1566 18.5262 15.2069 18.6825 15.2069H19.7542C19.9105 15.2069 20.0388 15.1566 20.1393 15.0562C20.2398 14.9557 20.29 14.8273 20.29 14.671ZM20.29 10.3844V9.3127C20.29 9.15642 20.2398 9.02804 20.1393 8.92757C20.0388 8.8271 19.9105 8.77687 19.7542 8.77687H18.6825C18.5262 8.77687 18.3978 8.8271 18.2974 8.92757C18.1969 9.02804 18.1467 9.15642 18.1467 9.3127V10.3844C18.1467 10.5407 18.1969 10.669 18.2974 10.7695C18.3978 10.87 18.5262 10.9202 18.6825 10.9202H19.7542C19.9105 10.9202 20.0388 10.87 20.1393 10.7695C20.2398 10.669 20.29 10.5407 20.29 10.3844ZM20.29 6.0977V5.02604C20.29 4.86975 20.2398 4.74137 20.1393 4.64091C20.0388 4.54044 19.9105 4.4902 19.7542 4.4902H18.6825C18.5262 4.4902 18.3978 4.54044 18.2974 4.64091C18.1969 4.74137 18.1467 4.86975 18.1467 5.02604V6.0977C18.1467 6.25399 18.1969 6.38237 18.2974 6.48283C18.3978 6.5833 18.5262 6.63354 18.6825 6.63354H19.7542C19.9105 6.63354 20.0388 6.5833 20.1393 6.48283C20.2398 6.38237 20.29 6.25399 20.29 6.0977Z" fill="#FBBE3F"/>
</svg>
