<svg width="40" height="31" viewBox="0 0 40 31" fill="none" xmlns="http://www.w3.org/2000/svg">
<g clip-path="url(#clip0_2_405)">
<path d="M30.4052 14.2022L30.7066 19.4936C30.7513 20.2638 30.2936 20.9783 29.3335 21.6369C28.3735 22.2955 27.0618 22.8174 25.3985 23.2025C23.7352 23.5877 21.9323 23.7802 19.99 23.7802C18.0476 23.7802 16.2447 23.5877 14.5814 23.2025C12.9181 22.8174 11.6064 22.2955 10.6464 21.6369C9.68632 20.9783 9.22863 20.2638 9.27328 19.4936L9.57469 14.2022L19.1862 17.233C19.4318 17.3112 19.6997 17.3502 19.99 17.3502C20.2802 17.3502 20.5481 17.3112 20.7937 17.233L30.4052 14.2022ZM38.9116 8.2578C39.1572 8.34711 39.28 8.52014 39.28 8.77689C39.28 9.03365 39.1572 9.20668 38.9116 9.29598L20.1574 15.1901C20.1127 15.2013 20.0569 15.2069 19.99 15.2069C19.923 15.2069 19.8672 15.2013 19.8225 15.1901L8.9049 11.7407C8.42488 12.1203 8.02859 12.7426 7.71602 13.6078C7.40345 14.4729 7.21368 15.4692 7.1467 16.5967C7.84998 16.9986 8.20162 17.607 8.20162 18.4219C8.20162 19.1922 7.87789 19.7894 7.23042 20.2136L8.20162 27.4641C8.22394 27.6204 8.17929 27.7599 8.06766 27.8827C7.96719 28.0055 7.83323 28.0669 7.66578 28.0669H4.45078C4.28334 28.0669 4.14938 28.0055 4.04891 27.8827C3.93728 27.7599 3.89262 27.6204 3.91495 27.4641L4.88615 20.2136C4.23868 19.7894 3.91495 19.1922 3.91495 18.4219C3.91495 17.607 4.27776 16.9874 5.00336 16.5632C5.12616 14.2524 5.67315 12.4105 6.64435 11.0374L1.06834 9.29598C0.822746 9.20668 0.699951 9.03365 0.699951 8.77689C0.699951 8.52014 0.822746 8.34711 1.06834 8.2578L19.8225 2.36364C19.8672 2.35247 19.923 2.34689 19.99 2.34689C20.0569 2.34689 20.1127 2.35247 20.1574 2.36364L38.9116 8.2578Z" fill="#FBBE3F"/>
</g>
<defs>
<clipPath id="clip0_2_405">
<rect width="38.58" height="31" fill="white" transform="matrix(1 0 0 -1 0.699951 31)"/>
</clipPath>
</defs>
</svg>
