<svg width="30" height="24" viewBox="0 0 30 24" fill="none" xmlns="http://www.w3.org/2000/svg">
<path d="M9.125 4.875C9.125 4.875 9.27083 5.02083 9.5625 5.3125C9.85417 5.60417 10 6.16667 10 7C10 7.83333 9.70833 8.54167 9.125 9.125C8.54167 9.70833 7.83333 10 7 10C6.16667 10 5.45833 9.70833 4.875 9.125C4.29167 8.54167 4 7.83333 4 7C4 6.16667 4.29167 5.45833 4.875 4.875C5.45833 4.29167 6.16667 4 7 4C7.83333 4 8.54167 4.29167 9.125 4.875ZM26 13V20H4V17L9 12L11.5 14.5L19.5 6.5L26 13ZM27.5 2H2.5C2.36458 2 2.2474 2.04948 2.14844 2.14844C2.04948 2.2474 2 2.36458 2 2.5V21.5C2 21.6354 2.04948 21.7526 2.14844 21.8516C2.2474 21.9505 2.36458 22 2.5 22H27.5C27.6354 22 27.7526 21.9505 27.8516 21.8516C27.9505 21.7526 28 21.6354 28 21.5V2.5C28 2.36458 27.9505 2.2474 27.8516 2.14844C27.7526 2.04948 27.6354 2 27.5 2ZM30 2.5V21.5C30 22.1875 29.7552 22.776 29.2656 23.2656C28.776 23.7552 28.1875 24 27.5 24H2.5C1.8125 24 1.22396 23.7552 0.734375 23.2656C0.244792 22.776 0 22.1875 0 21.5V2.5C0 1.8125 0.244792 1.22396 0.734375 0.734375C1.22396 0.244791 1.8125 0 2.5 0H27.5C28.1875 0 28.776 0.244791 29.2656 0.734375C29.7552 1.22396 30 1.8125 30 2.5Z" fill="#FBBE3F"/>
</svg>
