<svg width="55" height="58" viewBox="0 0 55 58" fill="none" xmlns="http://www.w3.org/2000/svg">
<path d="M27.1875 3.62524C41.18 3.62524 52.5625 15.0077 52.5625 29.0002C52.5625 42.9927 41.18 54.3752 27.1875 54.3752C13.195 54.3752 1.8125 42.9927 1.8125 29.0002C1.8125 15.0077 13.195 3.62524 27.1875 3.62524ZM27.1875 52.5627C40.1797 52.5627 50.75 41.9925 50.75 29.0002C50.75 16.008 40.1797 5.43774 27.1875 5.43774C14.1953 5.43774 3.625 16.008 3.625 29.0002C3.625 41.9925 14.1953 52.5627 27.1875 52.5627ZM13.5938 0.000244141H15.1797C15.6804 0.000244141 16.0859 0.405792 16.0859 0.906494C16.0859 1.4072 15.6804 1.81274 15.1797 1.81274H13.5938C7.0982 1.81274 1.8125 7.09845 1.8125 13.594V15.5186C1.8125 16.0205 1.40695 16.4249 0.90625 16.4249C0.405547 16.4249 0 16.0193 0 15.5186V13.594C0 6.09704 6.0968 0.000244141 13.5938 0.000244141ZM40.5547 0.000244141C48.0516 0.000244141 54.1484 6.09704 54.1484 13.594V15.5186C54.1484 16.0193 53.7429 16.4249 53.2422 16.4249C52.7415 16.4249 52.3359 16.0193 52.3359 15.5186V13.594C52.3359 7.09845 47.0502 1.81274 40.5547 1.81274H38.9688C38.468 1.81274 38.0625 1.4072 38.0625 0.906494C38.0625 0.405792 38.468 0.000244141 38.9688 0.000244141H40.5547ZM27.1875 29.5315L35.8297 38.1738C36.1832 38.5272 36.1832 39.1015 35.8297 39.455C35.6519 39.6306 35.4196 39.7189 35.1874 39.7189C34.9563 39.7189 34.7241 39.6328 34.5462 39.455L25.6401 30.5477C25.4713 30.3777 25.375 30.1478 25.375 29.9065V16.8905C25.375 16.3909 25.7805 15.9842 26.2812 15.9842C26.782 15.9842 27.1875 16.3909 27.1875 16.8905V29.5315ZM3.44375 57.6377C3.2659 57.8756 2.99289 58.0002 2.71875 58.0002C2.5307 58.0002 2.33812 57.9425 2.175 57.8213C1.77398 57.5199 1.69242 56.9524 1.99148 56.5525L7.42898 49.3025C7.73258 48.9015 8.29898 48.8222 8.69773 49.119C9.09875 49.4203 9.18031 49.9867 8.88125 50.3877L3.44375 57.6377ZM46.9437 49.3002L52.3812 56.548C52.6803 56.949 52.5988 57.5165 52.1977 57.8167C52.0346 57.9402 51.8432 57.998 51.654 57.998C51.381 57.998 51.1091 57.8734 50.929 57.6355L45.4915 50.3855C45.1924 49.9856 45.274 49.4181 45.675 49.1167C46.076 48.8199 46.6413 48.8981 46.9437 49.3002Z" fill="#121212"/>
</svg>
