<svg width="30" height="29" viewBox="0 0 30 29" fill="none" xmlns="http://www.w3.org/2000/svg">
<path d="M9.125 7.10156C9.125 7.10156 9.27083 7.2474 9.5625 7.53906C9.85417 7.83073 10 8.39323 10 9.22656C10 10.0599 9.70833 10.7682 9.125 11.3516C8.54167 11.9349 7.83333 12.2266 7 12.2266C6.16667 12.2266 5.45833 11.9349 4.875 11.3516C4.29167 10.7682 4 10.0599 4 9.22656C4 8.39323 4.29167 7.6849 4.875 7.10156C5.45833 6.51823 6.16667 6.22656 7 6.22656C7.83333 6.22656 8.54167 6.51823 9.125 7.10156ZM26 15.2266V22.2266H4V19.2266L9 14.2266L11.5 16.7266L19.5 8.72656L26 15.2266ZM27.5 4.22656H2.5C2.36458 4.22656 2.2474 4.27604 2.14844 4.375C2.04948 4.47396 2 4.59115 2 4.72656V23.7266C2 23.862 2.04948 23.9792 2.14844 24.0781C2.2474 24.1771 2.36458 24.2266 2.5 24.2266H27.5C27.6354 24.2266 27.7526 24.1771 27.8516 24.0781C27.9505 23.9792 28 23.862 28 23.7266V4.72656C28 4.59115 27.9505 4.47396 27.8516 4.375C27.7526 4.27604 27.6354 4.22656 27.5 4.22656ZM30 4.72656V23.7266C30 24.4141 29.7552 25.0026 29.2656 25.4922C28.776 25.9818 28.1875 26.2266 27.5 26.2266H2.5C1.8125 26.2266 1.22396 25.9818 0.734375 25.4922C0.244792 25.0026 0 24.4141 0 23.7266V4.72656C0 4.03906 0.244792 3.45052 0.734375 2.96094C1.22396 2.47135 1.8125 2.22656 2.5 2.22656H27.5C28.1875 2.22656 28.776 2.47135 29.2656 2.96094C29.7552 3.45052 30 4.03906 30 4.72656Z" fill="#FBBE3F"/>
</svg>
