<svg width="40" height="58" viewBox="0 0 40 58" fill="none" xmlns="http://www.w3.org/2000/svg">
<g clip-path="url(#clip0_130_856)">
<path d="M19.9404 0C29.7404 0 39.8779 7.45844 39.8779 19.9375C39.8779 26.1 37.5273 31.0719 32.6936 35.133C32.6789 35.1478 32.6608 35.1602 32.6438 35.1738C29.2046 38.911 29.0335 39.6213 29.0097 41.2559L29.0086 41.3397C29.0097 41.3545 29.0097 41.3703 29.0097 41.3862C29.0097 41.4485 29.0086 41.5085 29.0063 41.5663L29.0007 41.6512C28.9327 42.528 28.5464 42.9868 28.2145 43.2213C27.4532 43.756 26.5504 43.4615 26.4507 43.4252L18.9402 41.6637C18.4519 41.5482 18.1517 41.0599 18.2661 40.5728C18.3794 40.0868 18.862 39.7866 19.3548 39.8988L26.9582 41.6875C26.9582 41.6875 27.1089 41.7113 27.17 41.7204C27.1689 41.6909 27.1882 41.615 27.1938 41.4768L27.1961 41.4134C27.1938 41.3454 27.1961 41.282 27.1961 41.2276C27.2301 38.9268 27.7308 37.8155 31.4226 33.8212C31.5008 33.7374 31.5891 33.6706 31.6888 33.6241C34.5707 31.1229 38.0654 27.1479 38.0654 19.9375C38.0654 8.59352 28.8511 1.8125 19.9404 1.8125C11.2223 1.8125 1.81543 8.74191 1.81543 19.9375C1.81543 25.4113 3.9791 30.0263 8.24981 33.6559C8.34383 33.7102 8.42879 33.7827 8.50016 33.87C12.1501 37.8155 12.6508 38.9268 12.6848 41.2276C12.6995 42.1474 12.6814 42.289 12.6814 42.289L12.6757 42.6357C12.6508 43.4456 12.6746 43.4524 12.9555 43.5385L27.5552 46.7478C28.0446 46.8554 28.3538 47.3391 28.2451 47.8285C28.1533 48.2521 27.7772 48.541 27.3604 48.541C27.2969 48.541 27.2323 48.5331 27.1666 48.5184L12.4967 45.291C10.7986 44.7721 10.8394 43.4003 10.8666 42.5813L10.8745 42.2018C10.8802 42.0976 10.8847 41.905 10.8745 41.2548C10.8507 39.6099 10.6763 38.8996 7.23141 35.1625C7.1691 35.1172 7.11359 35.0651 7.06488 35.0028C2.42035 31.1274 0.00292969 26.015 0.00292969 19.9375C0.00292969 7.62383 10.3523 0 19.9404 0ZM27.1904 53.4688C27.1247 53.4688 27.0579 53.462 26.9888 53.445L12.4888 50.1575C11.9994 50.0465 11.6936 49.5605 11.8057 49.0734C11.9167 48.5863 12.3982 48.2816 12.8898 48.3904L27.3898 51.6778C27.8792 51.7888 28.185 52.2748 28.0729 52.7619C27.9789 53.1844 27.605 53.4688 27.1904 53.4688ZM13.7938 53.5662L25.575 56.209C26.0644 56.3178 26.3714 56.8015 26.2627 57.2909C26.1686 57.7134 25.7925 58 25.3779 58C25.3122 58 25.2477 57.9932 25.1786 57.9762L13.3973 55.3334C12.9079 55.2246 12.6021 54.7409 12.7108 54.2515C12.823 53.7644 13.3033 53.4574 13.7938 53.5662Z" fill="#121212"/>
</g>
<defs>
<clipPath id="clip0_130_856">
<rect width="39.88" height="58" fill="white" transform="matrix(1 0 0 -1 0 58)"/>
</clipPath>
</defs>
</svg>
