<svg width="36" height="41" viewBox="0 0 36 41" fill="none" xmlns="http://www.w3.org/2000/svg">
<path d="M8.48989 34.4696L10.532 32.4274L5.25836 27.1538L3.21622 29.1959V31.5971H6.08869V34.4696H8.48989ZM20.2266 13.6442C20.2266 13.315 20.062 13.1505 19.7329 13.1505C19.5833 13.1505 19.4561 13.2028 19.3514 13.3076L7.1883 25.4707C7.08358 25.5754 7.03122 25.7026 7.03122 25.8522C7.03122 26.1813 7.19578 26.3459 7.52492 26.3459C7.67453 26.3459 7.80169 26.2935 7.90642 26.1888L20.0695 14.0257C20.1743 13.921 20.2266 13.7938 20.2266 13.6442ZM19.0148 9.33548L28.3503 18.671L9.67927 37.342H0.34375V28.0065L19.0148 9.33548ZM34.3421 11.4898C34.3421 12.2827 34.0653 12.956 33.5118 13.5095L29.7865 17.2348L20.451 7.89924L24.1763 4.19645C24.7148 3.62794 25.3881 3.34369 26.196 3.34369C26.9889 3.34369 27.6696 3.62794 28.2381 4.19645L33.5118 9.44768C34.0653 10.0312 34.3421 10.7119 34.3421 11.4898Z" fill="#FBBE3F"/>
</svg>
