<svg width="28" height="29" viewBox="0 0 28 29" fill="none" xmlns="http://www.w3.org/2000/svg">
<path d="M10 4.22656H18V2.22656H10V4.22656ZM28 14.2266V21.7266C28 22.4141 27.7552 23.0026 27.2656 23.4922C26.776 23.9818 26.1875 24.2266 25.5 24.2266H2.5C1.8125 24.2266 1.22396 23.9818 0.734375 23.4922C0.244792 23.0026 0 22.4141 0 21.7266V14.2266H10.5V16.7266C10.5 16.9974 10.599 17.2318 10.7969 17.4297C10.9948 17.6276 11.2292 17.7266 11.5 17.7266H16.5C16.7708 17.7266 17.0052 17.6276 17.2031 17.4297C17.401 17.2318 17.5 16.9974 17.5 16.7266V14.2266H28ZM16 14.2266V16.2266H12V14.2266H16ZM28 6.72656V12.7266H0V6.72656C0 6.03906 0.244792 5.45052 0.734375 4.96094C1.22396 4.47135 1.8125 4.22656 2.5 4.22656H8V1.72656C8 1.3099 8.14583 0.955729 8.4375 0.664062C8.72917 0.372396 9.08333 0.226562 9.5 0.226562H18.5C18.9167 0.226562 19.2708 0.372396 19.5625 0.664062C19.8542 0.955729 20 1.3099 20 1.72656V4.22656H25.5C26.1875 4.22656 26.776 4.47135 27.2656 4.96094C27.7552 5.45052 28 6.03906 28 6.72656Z" fill="#FBBE3F"/>
</svg>
