<svg width="26" height="30" viewBox="0 0 26 30" fill="none" xmlns="http://www.w3.org/2000/svg">
<path d="M21.5955 16.6968V24.1968C21.5955 24.4676 21.4965 24.702 21.2986 24.8999C21.1007 25.0978 20.8663 25.1968 20.5955 25.1968H14.5955V19.1968H10.5955V25.1968H4.59549C4.32465 25.1968 4.09028 25.0978 3.89236 24.8999C3.69444 24.702 3.59549 24.4676 3.59549 24.1968V16.6968C3.59549 16.6864 3.59809 16.6707 3.6033 16.6499C3.60851 16.6291 3.61111 16.6134 3.61111 16.603L12.5955 9.19678L21.5799 16.603C21.5903 16.6239 21.5955 16.6551 21.5955 16.6968ZM25.0799 15.6187L24.1111 16.7749C24.0278 16.8687 23.9184 16.9259 23.783 16.9468H23.7361C23.6007 16.9468 23.4913 16.9103 23.408 16.8374L12.5955 7.82178L1.78299 16.8374C1.65799 16.9207 1.53299 16.9572 1.40799 16.9468C1.27257 16.9259 1.16319 16.8687 1.07986 16.7749L0.111111 15.6187C0.0277778 15.5145 -0.00868056 15.3921 0.00173611 15.2515C0.0121528 15.1108 0.0694444 14.9989 0.173611 14.9155L11.408 5.55615C11.7413 5.28532 12.1372 5.1499 12.5955 5.1499C13.0538 5.1499 13.4497 5.28532 13.783 5.55615L17.5955 8.74365V5.69678C17.5955 5.55094 17.6424 5.43115 17.7361 5.3374C17.8299 5.24365 17.9497 5.19678 18.0955 5.19678H21.0955C21.2413 5.19678 21.3611 5.24365 21.4549 5.3374C21.5486 5.43115 21.5955 5.55094 21.5955 5.69678V12.0718L25.0174 14.9155C25.1215 14.9989 25.1788 15.1108 25.1892 15.2515C25.1997 15.3921 25.1632 15.5145 25.0799 15.6187Z" fill="#2A2F35"/>
</svg>
