<svg width="22" height="30" viewBox="0 0 22 30" fill="none" xmlns="http://www.w3.org/2000/svg">
<g clip-path="url(#clip0_2_517)">
<path d="M6 21.6968V22.6968C6 22.8322 5.95052 22.9494 5.85156 23.0483C5.7526 23.1473 5.63542 23.1968 5.5 23.1968H4.5C4.36458 23.1968 4.2474 23.1473 4.14844 23.0483C4.04948 22.9494 4 22.8322 4 22.6968V21.6968C4 21.5614 4.04948 21.4442 4.14844 21.3452C4.2474 21.2463 4.36458 21.1968 4.5 21.1968H5.5C5.63542 21.1968 5.7526 21.2463 5.85156 21.3452C5.95052 21.4442 6 21.5614 6 21.6968ZM6 17.6968V18.6968C6 18.8322 5.95052 18.9494 5.85156 19.0483C5.7526 19.1473 5.63542 19.1968 5.5 19.1968H4.5C4.36458 19.1968 4.2474 19.1473 4.14844 19.0483C4.04948 18.9494 4 18.8322 4 18.6968V17.6968C4 17.5614 4.04948 17.4442 4.14844 17.3452C4.2474 17.2463 4.36458 17.1968 4.5 17.1968H5.5C5.63542 17.1968 5.7526 17.2463 5.85156 17.3452C5.95052 17.4442 6 17.5614 6 17.6968ZM10 17.6968V18.6968C10 18.8322 9.95052 18.9494 9.85156 19.0483C9.7526 19.1473 9.63542 19.1968 9.5 19.1968H8.5C8.36458 19.1968 8.2474 19.1473 8.14844 19.0483C8.04948 18.9494 8 18.8322 8 18.6968V17.6968C8 17.5614 8.04948 17.4442 8.14844 17.3452C8.2474 17.2463 8.36458 17.1968 8.5 17.1968H9.5C9.63542 17.1968 9.7526 17.2463 9.85156 17.3452C9.95052 17.4442 10 17.5614 10 17.6968ZM6 13.6968V14.6968C6 14.8322 5.95052 14.9494 5.85156 15.0483C5.7526 15.1473 5.63542 15.1968 5.5 15.1968H4.5C4.36458 15.1968 4.2474 15.1473 4.14844 15.0483C4.04948 14.9494 4 14.8322 4 14.6968V13.6968C4 13.5614 4.04948 13.4442 4.14844 13.3452C4.2474 13.2463 4.36458 13.1968 4.5 13.1968H5.5C5.63542 13.1968 5.7526 13.2463 5.85156 13.3452C5.95052 13.4442 6 13.5614 6 13.6968ZM18 21.6968V22.6968C18 22.8322 17.9505 22.9494 17.8516 23.0483C17.7526 23.1473 17.6354 23.1968 17.5 23.1968H16.5C16.3646 23.1968 16.2474 23.1473 16.1484 23.0483C16.0495 22.9494 16 22.8322 16 22.6968V21.6968C16 21.5614 16.0495 21.4442 16.1484 21.3452C16.2474 21.2463 16.3646 21.1968 16.5 21.1968H17.5C17.6354 21.1968 17.7526 21.2463 17.8516 21.3452C17.9505 21.4442 18 21.5614 18 21.6968ZM14 17.6968V18.6968C14 18.8322 13.9505 18.9494 13.8516 19.0483C13.7526 19.1473 13.6354 19.1968 13.5 19.1968H12.5C12.3646 19.1968 12.2474 19.1473 12.1484 19.0483C12.0495 18.9494 12 18.8322 12 18.6968V17.6968C12 17.5614 12.0495 17.4442 12.1484 17.3452C12.2474 17.2463 12.3646 17.1968 12.5 17.1968H13.5C13.6354 17.1968 13.7526 17.2463 13.8516 17.3452C13.9505 17.4442 14 17.5614 14 17.6968ZM10 13.6968V14.6968C10 14.8322 9.95052 14.9494 9.85156 15.0483C9.7526 15.1473 9.63542 15.1968 9.5 15.1968H8.5C8.36458 15.1968 8.2474 15.1473 8.14844 15.0483C8.04948 14.9494 8 14.8322 8 14.6968V13.6968C8 13.5614 8.04948 13.4442 8.14844 13.3452C8.2474 13.2463 8.36458 13.1968 8.5 13.1968H9.5C9.63542 13.1968 9.7526 13.2463 9.85156 13.3452C9.95052 13.4442 10 13.5614 10 13.6968ZM18 17.6968V18.6968C18 18.8322 17.9505 18.9494 17.8516 19.0483C17.7526 19.1473 17.6354 19.1968 17.5 19.1968H16.5C16.3646 19.1968 16.2474 19.1473 16.1484 19.0483C16.0495 18.9494 16 18.8322 16 18.6968V17.6968C16 17.5614 16.0495 17.4442 16.1484 17.3452C16.2474 17.2463 16.3646 17.1968 16.5 17.1968H17.5C17.6354 17.1968 17.7526 17.2463 17.8516 17.3452C17.9505 17.4442 18 17.5614 18 17.6968ZM14 13.6968V14.6968C14 14.8322 13.9505 14.9494 13.8516 15.0483C13.7526 15.1473 13.6354 15.1968 13.5 15.1968H12.5C12.3646 15.1968 12.2474 15.1473 12.1484 15.0483C12.0495 14.9494 12 14.8322 12 14.6968V13.6968C12 13.5614 12.0495 13.4442 12.1484 13.3452C12.2474 13.2463 12.3646 13.1968 12.5 13.1968H13.5C13.6354 13.1968 13.7526 13.2463 13.8516 13.3452C13.9505 13.4442 14 13.5614 14 13.6968ZM18 13.6968V14.6968C18 14.8322 17.9505 14.9494 17.8516 15.0483C17.7526 15.1473 17.6354 15.1968 17.5 15.1968H16.5C16.3646 15.1968 16.2474 15.1473 16.1484 15.0483C16.0495 14.9494 16 14.8322 16 14.6968V13.6968C16 13.5614 16.0495 13.4442 16.1484 13.3452C16.2474 13.2463 16.3646 13.1968 16.5 13.1968H17.5C17.6354 13.1968 17.7526 13.2463 17.8516 13.3452C17.9505 13.4442 18 13.5614 18 13.6968ZM14 27.1968H20V9.19678H16V9.69678C16 10.1134 15.8542 10.4676 15.5625 10.7593C15.2708 11.0509 14.9167 11.1968 14.5 11.1968H7.5C7.08333 11.1968 6.72917 11.0509 6.4375 10.7593C6.14583 10.4676 6 10.1134 6 9.69678V9.19678H2V27.1968H8V23.6968C8 23.5614 8.04948 23.4442 8.14844 23.3452C8.2474 23.2463 8.36458 23.1968 8.5 23.1968H13.5C13.6354 23.1968 13.7526 23.2463 13.8516 23.3452C13.9505 23.4442 14 23.5614 14 23.6968V27.1968ZM14 8.69678V3.69678C14 3.56136 13.9505 3.44417 13.8516 3.34521C13.7526 3.24626 13.6354 3.19678 13.5 3.19678H12.5C12.3646 3.19678 12.2474 3.24626 12.1484 3.34521C12.0495 3.44417 12 3.56136 12 3.69678V5.19678H10V3.69678C10 3.56136 9.95052 3.44417 9.85156 3.34521C9.7526 3.24626 9.63542 3.19678 9.5 3.19678H8.5C8.36458 3.19678 8.2474 3.24626 8.14844 3.34521C8.04948 3.44417 8 3.56136 8 3.69678V8.69678C8 8.83219 8.04948 8.94938 8.14844 9.04834C8.2474 9.1473 8.36458 9.19678 8.5 9.19678H9.5C9.63542 9.19678 9.7526 9.1473 9.85156 9.04834C9.95052 8.94938 10 8.83219 10 8.69678V7.19678H12V8.69678C12 8.83219 12.0495 8.94938 12.1484 9.04834C12.2474 9.1473 12.3646 9.19678 12.5 9.19678H13.5C13.6354 9.19678 13.7526 9.1473 13.8516 9.04834C13.9505 8.94938 14 8.83219 14 8.69678ZM22 8.19678V28.1968C22 28.4676 21.901 28.702 21.7031 28.8999C21.5052 29.0978 21.2708 29.1968 21 29.1968H1C0.729167 29.1968 0.494792 29.0978 0.296875 28.8999C0.0989583 28.702 0 28.4676 0 28.1968V8.19678C0 7.92594 0.0989583 7.69157 0.296875 7.49365C0.494792 7.29574 0.729167 7.19678 1 7.19678H6V2.69678C6 2.28011 6.14583 1.92594 6.4375 1.63428C6.72917 1.34261 7.08333 1.19678 7.5 1.19678H14.5C14.9167 1.19678 15.2708 1.34261 15.5625 1.63428C15.8542 1.92594 16 2.28011 16 2.69678V7.19678H21C21.2708 7.19678 21.5052 7.29574 21.7031 7.49365C21.901 7.69157 22 7.92594 22 8.19678Z" fill="#FBBE3F"/>
</g>
<defs>
<clipPath id="clip0_2_517">
<rect width="22" height="29" fill="white" transform="matrix(1 0 0 -1 0 29.9702)"/>
</clipPath>
</defs>
</svg>
