<svg width="32" height="30" viewBox="0 0 32 30" fill="none" xmlns="http://www.w3.org/2000/svg">
<g clip-path="url(#clip0_2_537)">
<path d="M32 7.19678H30V23.1968H32V29.1968H26V27.1968H6V29.1968H0V23.1968H2V7.19678H0V1.19678H6V3.19678H26V1.19678H32V7.19678ZM28 3.19678V5.19678H30V3.19678H28ZM2 3.19678V5.19678H4V3.19678H2ZM4 27.1968V25.1968H2V27.1968H4ZM26 25.1968V23.1968H28V7.19678H26V5.19678H6V7.19678H4V23.1968H6V25.1968H26ZM30 27.1968V25.1968H28V27.1968H30ZM20 11.1968H26V23.1968H12V19.1968H6V7.19678H20V11.1968ZM8 17.1968H18V9.19678H8V17.1968ZM24 21.1968V13.1968H20V19.1968H14V21.1968H24Z" fill="#2A2F35"/>
</g>
<defs>
<clipPath id="clip0_2_537">
<rect width="32" height="29" fill="white" transform="matrix(1 0 0 -1 0 29.9702)"/>
</clipPath>
</defs>
</svg>
