<svg width="30" height="30" viewBox="0 0 30 30" fill="none" xmlns="http://www.w3.org/2000/svg">
<path d="M9.125 8.07178C9.125 8.07178 9.27083 8.21761 9.5625 8.50928C9.85417 8.80094 10 9.36344 10 10.1968C10 11.0301 9.70833 11.7384 9.125 12.3218C8.54167 12.9051 7.83333 13.1968 7 13.1968C6.16667 13.1968 5.45833 12.9051 4.875 12.3218C4.29167 11.7384 4 11.0301 4 10.1968C4 9.36344 4.29167 8.65511 4.875 8.07178C5.45833 7.48844 6.16667 7.19678 7 7.19678C7.83333 7.19678 8.54167 7.48844 9.125 8.07178ZM26 16.1968V23.1968H4V20.1968L9 15.1968L11.5 17.6968L19.5 9.69678L26 16.1968ZM27.5 5.19678H2.5C2.36458 5.19678 2.2474 5.24626 2.14844 5.34521C2.04948 5.44417 2 5.56136 2 5.69678V24.6968C2 24.8322 2.04948 24.9494 2.14844 25.0483C2.2474 25.1473 2.36458 25.1968 2.5 25.1968H27.5C27.6354 25.1968 27.7526 25.1473 27.8516 25.0483C27.9505 24.9494 28 24.8322 28 24.6968V5.69678C28 5.56136 27.9505 5.44417 27.8516 5.34521C27.7526 5.24626 27.6354 5.19678 27.5 5.19678ZM30 5.69678V24.6968C30 25.3843 29.7552 25.9728 29.2656 26.4624C28.776 26.952 28.1875 27.1968 27.5 27.1968H2.5C1.8125 27.1968 1.22396 26.952 0.734375 26.4624C0.244792 25.9728 0 25.3843 0 24.6968V5.69678C0 5.00928 0.244792 4.42074 0.734375 3.93115C1.22396 3.44157 1.8125 3.19678 2.5 3.19678H27.5C28.1875 3.19678 28.776 3.44157 29.2656 3.93115C29.7552 4.42074 30 5.00928 30 5.69678Z" fill="#2A2F35"/>
</svg>
