<svg width="24" height="30" viewBox="0 0 24 30" fill="none" xmlns="http://www.w3.org/2000/svg">
<g clip-path="url(#clip0_2_495)">
<path d="M22 1.19678C22.2708 1.19678 22.5052 1.29574 22.7031 1.49365C22.901 1.69157 23 1.92594 23 2.19678V28.1968C23 28.4676 22.901 28.702 22.7031 28.8999C22.5052 29.0978 22.2708 29.1968 22 29.1968H2C1.72917 29.1968 1.49479 29.0978 1.29688 28.8999C1.09896 28.702 1 28.4676 1 28.1968V2.19678C1 1.92594 1.09896 1.69157 1.29688 1.49365C1.49479 1.29574 1.72917 1.19678 2 1.19678H22ZM9 5.69678V6.69678C9 6.84261 9.04688 6.9624 9.14062 7.05615C9.23438 7.1499 9.35417 7.19678 9.5 7.19678H10.5C10.6458 7.19678 10.7656 7.1499 10.8594 7.05615C10.9531 6.9624 11 6.84261 11 6.69678V5.69678C11 5.55094 10.9531 5.43115 10.8594 5.3374C10.7656 5.24365 10.6458 5.19678 10.5 5.19678H9.5C9.35417 5.19678 9.23438 5.24365 9.14062 5.3374C9.04688 5.43115 9 5.55094 9 5.69678ZM9 9.69678V10.6968C9 10.8426 9.04688 10.9624 9.14062 11.0562C9.23438 11.1499 9.35417 11.1968 9.5 11.1968H10.5C10.6458 11.1968 10.7656 11.1499 10.8594 11.0562C10.9531 10.9624 11 10.8426 11 10.6968V9.69678C11 9.55094 10.9531 9.43115 10.8594 9.3374C10.7656 9.24365 10.6458 9.19678 10.5 9.19678H9.5C9.35417 9.19678 9.23438 9.24365 9.14062 9.3374C9.04688 9.43115 9 9.55094 9 9.69678ZM9 13.6968V14.6968C9 14.8426 9.04688 14.9624 9.14062 15.0562C9.23438 15.1499 9.35417 15.1968 9.5 15.1968H10.5C10.6458 15.1968 10.7656 15.1499 10.8594 15.0562C10.9531 14.9624 11 14.8426 11 14.6968V13.6968C11 13.5509 10.9531 13.4312 10.8594 13.3374C10.7656 13.2437 10.6458 13.1968 10.5 13.1968H9.5C9.35417 13.1968 9.23438 13.2437 9.14062 13.3374C9.04688 13.4312 9 13.5509 9 13.6968ZM9 17.6968V18.6968C9 18.8426 9.04688 18.9624 9.14062 19.0562C9.23438 19.1499 9.35417 19.1968 9.5 19.1968H10.5C10.6458 19.1968 10.7656 19.1499 10.8594 19.0562C10.9531 18.9624 11 18.8426 11 18.6968V17.6968C11 17.5509 10.9531 17.4312 10.8594 17.3374C10.7656 17.2437 10.6458 17.1968 10.5 17.1968H9.5C9.35417 17.1968 9.23438 17.2437 9.14062 17.3374C9.04688 17.4312 9 17.5509 9 17.6968ZM7 22.6968V21.6968C7 21.5509 6.95312 21.4312 6.85938 21.3374C6.76562 21.2437 6.64583 21.1968 6.5 21.1968H5.5C5.35417 21.1968 5.23438 21.2437 5.14062 21.3374C5.04688 21.4312 5 21.5509 5 21.6968V22.6968C5 22.8426 5.04688 22.9624 5.14062 23.0562C5.23438 23.1499 5.35417 23.1968 5.5 23.1968H6.5C6.64583 23.1968 6.76562 23.1499 6.85938 23.0562C6.95312 22.9624 7 22.8426 7 22.6968ZM7 18.6968V17.6968C7 17.5509 6.95312 17.4312 6.85938 17.3374C6.76562 17.2437 6.64583 17.1968 6.5 17.1968H5.5C5.35417 17.1968 5.23438 17.2437 5.14062 17.3374C5.04688 17.4312 5 17.5509 5 17.6968V18.6968C5 18.8426 5.04688 18.9624 5.14062 19.0562C5.23438 19.1499 5.35417 19.1968 5.5 19.1968H6.5C6.64583 19.1968 6.76562 19.1499 6.85938 19.0562C6.95312 18.9624 7 18.8426 7 18.6968ZM7 14.6968V13.6968C7 13.5509 6.95312 13.4312 6.85938 13.3374C6.76562 13.2437 6.64583 13.1968 6.5 13.1968H5.5C5.35417 13.1968 5.23438 13.2437 5.14062 13.3374C5.04688 13.4312 5 13.5509 5 13.6968V14.6968C5 14.8426 5.04688 14.9624 5.14062 15.0562C5.23438 15.1499 5.35417 15.1968 5.5 15.1968H6.5C6.64583 15.1968 6.76562 15.1499 6.85938 15.0562C6.95312 14.9624 7 14.8426 7 14.6968ZM7 10.6968V9.69678C7 9.55094 6.95312 9.43115 6.85938 9.3374C6.76562 9.24365 6.64583 9.19678 6.5 9.19678H5.5C5.35417 9.19678 5.23438 9.24365 5.14062 9.3374C5.04688 9.43115 5 9.55094 5 9.69678V10.6968C5 10.8426 5.04688 10.9624 5.14062 11.0562C5.23438 11.1499 5.35417 11.1968 5.5 11.1968H6.5C6.64583 11.1968 6.76562 11.1499 6.85938 11.0562C6.95312 10.9624 7 10.8426 7 10.6968ZM7 6.69678V5.69678C7 5.55094 6.95312 5.43115 6.85938 5.3374C6.76562 5.24365 6.64583 5.19678 6.5 5.19678H5.5C5.35417 5.19678 5.23438 5.24365 5.14062 5.3374C5.04688 5.43115 5 5.55094 5 5.69678V6.69678C5 6.84261 5.04688 6.9624 5.14062 7.05615C5.23438 7.1499 5.35417 7.19678 5.5 7.19678H6.5C6.64583 7.19678 6.76562 7.1499 6.85938 7.05615C6.95312 6.9624 7 6.84261 7 6.69678ZM15 26.6968V23.6968C15 23.5509 14.9531 23.4312 14.8594 23.3374C14.7656 23.2437 14.6458 23.1968 14.5 23.1968H9.5C9.35417 23.1968 9.23438 23.2437 9.14062 23.3374C9.04688 23.4312 9 23.5509 9 23.6968V26.6968C9 26.8426 9.04688 26.9624 9.14062 27.0562C9.23438 27.1499 9.35417 27.1968 9.5 27.1968H14.5C14.6458 27.1968 14.7656 27.1499 14.8594 27.0562C14.9531 26.9624 15 26.8426 15 26.6968ZM15 18.6968V17.6968C15 17.5509 14.9531 17.4312 14.8594 17.3374C14.7656 17.2437 14.6458 17.1968 14.5 17.1968H13.5C13.3542 17.1968 13.2344 17.2437 13.1406 17.3374C13.0469 17.4312 13 17.5509 13 17.6968V18.6968C13 18.8426 13.0469 18.9624 13.1406 19.0562C13.2344 19.1499 13.3542 19.1968 13.5 19.1968H14.5C14.6458 19.1968 14.7656 19.1499 14.8594 19.0562C14.9531 18.9624 15 18.8426 15 18.6968ZM15 14.6968V13.6968C15 13.5509 14.9531 13.4312 14.8594 13.3374C14.7656 13.2437 14.6458 13.1968 14.5 13.1968H13.5C13.3542 13.1968 13.2344 13.2437 13.1406 13.3374C13.0469 13.4312 13 13.5509 13 13.6968V14.6968C13 14.8426 13.0469 14.9624 13.1406 15.0562C13.2344 15.1499 13.3542 15.1968 13.5 15.1968H14.5C14.6458 15.1968 14.7656 15.1499 14.8594 15.0562C14.9531 14.9624 15 14.8426 15 14.6968ZM15 10.6968V9.69678C15 9.55094 14.9531 9.43115 14.8594 9.3374C14.7656 9.24365 14.6458 9.19678 14.5 9.19678H13.5C13.3542 9.19678 13.2344 9.24365 13.1406 9.3374C13.0469 9.43115 13 9.55094 13 9.69678V10.6968C13 10.8426 13.0469 10.9624 13.1406 11.0562C13.2344 11.1499 13.3542 11.1968 13.5 11.1968H14.5C14.6458 11.1968 14.7656 11.1499 14.8594 11.0562C14.9531 10.9624 15 10.8426 15 10.6968ZM15 6.69678V5.69678C15 5.55094 14.9531 5.43115 14.8594 5.3374C14.7656 5.24365 14.6458 5.19678 14.5 5.19678H13.5C13.3542 5.19678 13.2344 5.24365 13.1406 5.3374C13.0469 5.43115 13 5.55094 13 5.69678V6.69678C13 6.84261 13.0469 6.9624 13.1406 7.05615C13.2344 7.1499 13.3542 7.19678 13.5 7.19678H14.5C14.6458 7.19678 14.7656 7.1499 14.8594 7.05615C14.9531 6.9624 15 6.84261 15 6.69678ZM19 22.6968V21.6968C19 21.5509 18.9531 21.4312 18.8594 21.3374C18.7656 21.2437 18.6458 21.1968 18.5 21.1968H17.5C17.3542 21.1968 17.2344 21.2437 17.1406 21.3374C17.0469 21.4312 17 21.5509 17 21.6968V22.6968C17 22.8426 17.0469 22.9624 17.1406 23.0562C17.2344 23.1499 17.3542 23.1968 17.5 23.1968H18.5C18.6458 23.1968 18.7656 23.1499 18.8594 23.0562C18.9531 22.9624 19 22.8426 19 22.6968ZM19 18.6968V17.6968C19 17.5509 18.9531 17.4312 18.8594 17.3374C18.7656 17.2437 18.6458 17.1968 18.5 17.1968H17.5C17.3542 17.1968 17.2344 17.2437 17.1406 17.3374C17.0469 17.4312 17 17.5509 17 17.6968V18.6968C17 18.8426 17.0469 18.9624 17.1406 19.0562C17.2344 19.1499 17.3542 19.1968 17.5 19.1968H18.5C18.6458 19.1968 18.7656 19.1499 18.8594 19.0562C18.9531 18.9624 19 18.8426 19 18.6968ZM19 14.6968V13.6968C19 13.5509 18.9531 13.4312 18.8594 13.3374C18.7656 13.2437 18.6458 13.1968 18.5 13.1968H17.5C17.3542 13.1968 17.2344 13.2437 17.1406 13.3374C17.0469 13.4312 17 13.5509 17 13.6968V14.6968C17 14.8426 17.0469 14.9624 17.1406 15.0562C17.2344 15.1499 17.3542 15.1968 17.5 15.1968H18.5C18.6458 15.1968 18.7656 15.1499 18.8594 15.0562C18.9531 14.9624 19 14.8426 19 14.6968ZM19 10.6968V9.69678C19 9.55094 18.9531 9.43115 18.8594 9.3374C18.7656 9.24365 18.6458 9.19678 18.5 9.19678H17.5C17.3542 9.19678 17.2344 9.24365 17.1406 9.3374C17.0469 9.43115 17 9.55094 17 9.69678V10.6968C17 10.8426 17.0469 10.9624 17.1406 11.0562C17.2344 11.1499 17.3542 11.1968 17.5 11.1968H18.5C18.6458 11.1968 18.7656 11.1499 18.8594 11.0562C18.9531 10.9624 19 10.8426 19 10.6968ZM19 6.69678V5.69678C19 5.55094 18.9531 5.43115 18.8594 5.3374C18.7656 5.24365 18.6458 5.19678 18.5 5.19678H17.5C17.3542 5.19678 17.2344 5.24365 17.1406 5.3374C17.0469 5.43115 17 5.55094 17 5.69678V6.69678C17 6.84261 17.0469 6.9624 17.1406 7.05615C17.2344 7.1499 17.3542 7.19678 17.5 7.19678H18.5C18.6458 7.19678 18.7656 7.1499 18.8594 7.05615C18.9531 6.9624 19 6.84261 19 6.69678Z" fill="#FBBE3F"/>
</g>
<defs>
<clipPath id="clip0_2_495">
<rect width="24" height="29" fill="white" transform="matrix(1 0 0 -1 0 29.9702)"/>
</clipPath>
</defs>
</svg>
