<svg width="24" height="29" viewBox="0 0 24 29" fill="none" xmlns="http://www.w3.org/2000/svg">
<g clip-path="url(#clip0_2_352)">
<path d="M22.9375 6.16406C23.2292 6.45573 23.4792 6.85156 23.6875 7.35156C23.8958 7.85156 24 8.3099 24 8.72656V26.7266C24 27.1432 23.8542 27.4974 23.5625 27.7891C23.2708 28.0807 22.9167 28.2266 22.5 28.2266H1.5C1.08333 28.2266 0.729167 28.0807 0.4375 27.7891C0.145833 27.4974 0 27.1432 0 26.7266V1.72656C0 1.3099 0.145833 0.955729 0.4375 0.664062C0.729167 0.372396 1.08333 0.226562 1.5 0.226562H15.5C15.9167 0.226562 16.375 0.330729 16.875 0.539062C17.375 0.747396 17.7708 0.997396 18.0625 1.28906L22.9375 6.16406ZM16 2.35156V8.22656H21.875C21.7708 7.92448 21.6562 7.71094 21.5312 7.58594L16.6406 2.69531C16.5156 2.57031 16.3021 2.45573 16 2.35156ZM22 26.2266V10.2266H15.5C15.0833 10.2266 14.7292 10.0807 14.4375 9.78906C14.1458 9.4974 14 9.14323 14 8.72656V2.22656H2V26.2266H22ZM6 12.7266C6 12.5807 6.04688 12.4609 6.14062 12.3672C6.23438 12.2734 6.35417 12.2266 6.5 12.2266H17.5C17.6458 12.2266 17.7656 12.2734 17.8594 12.3672C17.9531 12.4609 18 12.5807 18 12.7266V13.7266C18 13.8724 17.9531 13.9922 17.8594 14.0859C17.7656 14.1797 17.6458 14.2266 17.5 14.2266H6.5C6.35417 14.2266 6.23438 14.1797 6.14062 14.0859C6.04688 13.9922 6 13.8724 6 13.7266V12.7266ZM17.5 16.2266C17.6458 16.2266 17.7656 16.2734 17.8594 16.3672C17.9531 16.4609 18 16.5807 18 16.7266V17.7266C18 17.8724 17.9531 17.9922 17.8594 18.0859C17.7656 18.1797 17.6458 18.2266 17.5 18.2266H6.5C6.35417 18.2266 6.23438 18.1797 6.14062 18.0859C6.04688 17.9922 6 17.8724 6 17.7266V16.7266C6 16.5807 6.04688 16.4609 6.14062 16.3672C6.23438 16.2734 6.35417 16.2266 6.5 16.2266H17.5ZM17.5 20.2266C17.6458 20.2266 17.7656 20.2734 17.8594 20.3672C17.9531 20.4609 18 20.5807 18 20.7266V21.7266C18 21.8724 17.9531 21.9922 17.8594 22.0859C17.7656 22.1797 17.6458 22.2266 17.5 22.2266H6.5C6.35417 22.2266 6.23438 22.1797 6.14062 22.0859C6.04688 21.9922 6 21.8724 6 21.7266V20.7266C6 20.5807 6.04688 20.4609 6.14062 20.3672C6.23438 20.2734 6.35417 20.2266 6.5 20.2266H17.5Z" fill="#FBBE3F"/>
</g>
<defs>
<clipPath id="clip0_2_352">
<rect width="24" height="29" fill="white" transform="matrix(1 0 0 -1 0 29)"/>
</clipPath>
</defs>
</svg>
