<svg width="77" height="58" viewBox="0 0 77 58" fill="none" xmlns="http://www.w3.org/2000/svg">
<g clip-path="url(#clip0_130_864)">
<path d="M71.5967 10.875C74.0957 10.875 76.1279 12.9084 76.1279 15.4062V48.0312C76.1279 50.5291 74.0957 52.5625 71.5967 52.5625H58.9092C58.4085 52.5625 58.0029 52.157 58.0029 51.6562C58.0029 51.1555 58.4085 50.75 58.9092 50.75H71.5967C73.0954 50.75 74.3154 49.53 74.3154 48.0312V25.375H59.8098C60.9777 28.1663 61.6279 31.2271 61.6279 34.4375C61.6279 47.4297 51.0577 58 38.0654 58C25.0732 58 14.5029 47.4297 14.5029 34.4375C14.5029 31.2271 15.1486 28.1663 16.3154 25.375H1.81543V48.0312C1.81543 49.53 3.03547 50.75 4.53418 50.75H15.4092C15.9099 50.75 16.3154 51.1555 16.3154 51.6562C16.3154 52.157 15.9099 52.5625 15.4092 52.5625H4.53418C2.0352 52.5625 0.00292969 50.5291 0.00292969 48.0312V15.4062C0.00292969 12.9084 2.0352 10.875 4.53418 10.875H18.1279C21.7223 10.875 21.8073 7.3882 21.8096 7.23867V5.4375C21.8096 3.25117 23.7399 0 29.0596 0H47.1279C51.8586 0 54.3779 3.15715 54.3779 5.4375V7.25C54.3813 7.61816 54.5105 10.875 58.0029 10.875H71.5967ZM38.0654 56.1875C50.0585 56.1875 59.8154 46.4306 59.8154 34.4375C59.8154 22.4444 50.0585 12.6875 38.0654 12.6875C26.0723 12.6875 16.3154 22.4444 16.3154 34.4375C16.3154 46.4306 26.0723 56.1875 38.0654 56.1875ZM59.3623 23.5625H74.3154V15.4062C74.3154 13.9075 73.0954 12.6875 71.5967 12.6875H58.0029C53.7016 12.6875 52.5654 9.1316 52.5654 7.25V5.4375C52.5654 4.2118 50.9229 1.8125 47.1279 1.8125H29.0596C25.0698 1.8125 23.6221 3.9807 23.6221 5.4375V7.25C23.5994 9.1384 22.4202 12.6875 18.1279 12.6875H4.53418C3.03547 12.6875 1.81543 13.9075 1.81543 15.4062V23.5625H16.7686C16.9022 23.5625 17.028 23.5954 17.1424 23.6475C21.0642 16.0735 28.9633 10.875 38.0654 10.875C47.1676 10.875 55.0667 16.0735 58.9885 23.6475C59.1029 23.5954 59.2286 23.5625 59.3623 23.5625ZM17.2217 9.0625C16.721 9.0625 16.3154 8.65695 16.3154 8.15625V6.34375C16.3154 5.84305 15.9076 5.4375 15.4092 5.4375H8.15918C7.66074 5.4375 7.25293 5.84305 7.25293 6.34375V8.15625C7.25293 8.65695 6.84738 9.0625 6.34668 9.0625C5.84598 9.0625 5.44043 8.65695 5.44043 8.15625V6.34375C5.44043 4.84504 6.66047 3.625 8.15918 3.625H15.4092C16.9079 3.625 18.1279 4.84504 18.1279 6.34375V8.15625C18.1279 8.65695 17.7224 9.0625 17.2217 9.0625ZM38.0654 18.125C47.0611 18.125 54.3779 25.4441 54.3779 34.4375C54.3779 43.4309 47.0611 50.75 38.0654 50.75C29.0698 50.75 21.7529 43.4309 21.7529 34.4375C21.7529 25.4441 29.0698 18.125 38.0654 18.125ZM38.0654 48.9375C46.0608 48.9375 52.5654 42.4329 52.5654 34.4375C52.5654 26.4421 46.0608 19.9375 38.0654 19.9375C30.07 19.9375 23.5654 26.4421 23.5654 34.4375C23.5654 42.4329 30.07 48.9375 38.0654 48.9375Z" fill="#121212"/>
</g>
<defs>
<clipPath id="clip0_130_864">
<rect width="76.13" height="58" fill="white" transform="matrix(1 0 0 -1 0 58)"/>
</clipPath>
</defs>
</svg>
