<svg width="11" height="13" viewBox="0 0 11 13" fill="none" xmlns="http://www.w3.org/2000/svg">
<g clip-path="url(#clip0_2_506)">
<path d="M10.384 7.27551C10.384 7.51196 10.303 7.71119 10.141 7.87321L5.86512 12.1491C5.69435 12.3111 5.49512 12.3921 5.26742 12.3921C5.04411 12.3921 4.84706 12.3111 4.67629 12.1491L4.18368 11.6565C4.01729 11.4901 3.93409 11.2908 3.93409 11.0588C3.93409 10.8267 4.01729 10.6274 4.18368 10.4611L6.10815 8.53659H1.48417C1.25648 8.53659 1.07147 8.45449 0.929163 8.29028C0.786853 8.12608 0.715698 7.92794 0.715698 7.69587V6.85514C0.715698 6.62307 0.786853 6.42493 0.929163 6.26073C1.07147 6.09652 1.25648 6.01442 1.48417 6.01442H6.10815L4.18368 4.08339C4.01729 3.92575 3.93409 3.72871 3.93409 3.49225C3.93409 3.2558 4.01729 3.05876 4.18368 2.90112L4.67629 2.40851C4.84268 2.24212 5.03973 2.15892 5.26742 2.15892C5.4995 2.15892 5.69873 2.24212 5.86512 2.40851L10.141 6.68437C10.303 6.83763 10.384 7.03467 10.384 7.27551Z" fill="#FBBE3F"/>
</g>
<defs>
<clipPath id="clip0_2_506">
<rect width="10.3" height="12" fill="white" transform="matrix(1 0 0 -1 0.609985 12.9702)"/>
</clipPath>
</defs>
</svg>
