<svg width="31" height="45" viewBox="0 0 31 45" fill="none" xmlns="http://www.w3.org/2000/svg">
<g clip-path="url(#clip0_52_1984)">
<path d="M20.4931 18.7721C20.4931 18.7721 20.8573 18.4427 21.5857 17.784C22.3141 17.1252 22.6783 15.8648 22.6783 14.0028C22.6783 12.1407 21.9499 10.5509 20.4931 9.23342C19.0363 7.91593 17.2785 7.25718 15.2196 7.25718C13.1607 7.25718 11.4029 7.91593 9.94608 9.23342C8.48931 10.5509 7.76092 12.1407 7.76092 14.0028C7.76092 15.8648 8.48931 17.4546 9.94608 18.7721C11.4029 20.0896 13.1607 20.7484 15.2196 20.7484C17.2785 20.7484 19.0363 20.0896 20.4931 18.7721ZM30.1369 14.0028C30.1369 15.9175 29.8165 17.4897 29.1755 18.7194L18.5702 39.1143C18.2594 39.694 17.7981 40.1507 17.1862 40.4845C16.5744 40.8182 15.9188 40.9851 15.2196 40.9851C14.5203 40.9851 13.8648 40.8182 13.253 40.4845C12.6411 40.1507 12.1895 39.694 11.8982 39.1143L1.26372 18.7194C0.622736 17.4897 0.302246 15.9175 0.302246 14.0028C0.302246 10.2786 1.75902 7.09908 4.67256 4.46408C7.58611 1.82909 11.1018 0.511593 15.2196 0.511593C19.3374 0.511593 22.8531 1.82909 25.7666 4.46408C28.6802 7.09908 30.1369 10.2786 30.1369 14.0028Z" fill="#FBBE3F"/>
</g>
<defs>
<clipPath id="clip0_52_1984">
<rect width="30.4412" height="45" fill="white" transform="matrix(1 0 0 -1 0 45)"/>
</clipPath>
</defs>
</svg>
