<svg width="59" height="58" viewBox="0 0 59 58" fill="none" xmlns="http://www.w3.org/2000/svg">
<path d="M26.6132 26.6404C26.3605 26.6404 26.1113 26.535 25.9312 26.33C25.5993 25.9527 25.6378 25.3807 26.015 25.051L46.5269 7.06875L47.7231 8.43152L27.2113 26.4149C27.0391 26.5656 26.825 26.6404 26.6132 26.6404ZM18.466 58C8.28312 58 0 49.7146 0 39.534C0 29.3534 8.28312 21.0703 18.4637 21.0703C19.7019 21.0703 21.4804 21.3762 22.6562 21.6118L46.5575 0.659298C47.0491 0.23336 47.6721 0 48.3145 0H55.3379C56.806 0 58 1.19398 58 2.66211V10.875C58 11.1016 58.0068 11.2738 58.0113 11.404C58.0249 11.7688 58.0419 12.1823 57.676 12.5085C57.3203 12.8268 56.9102 12.7634 56.6916 12.7294C56.5829 12.7124 56.4209 12.6875 56.1875 12.6875H50.75V19.9375C50.7104 21.2731 50.349 21.6571 49.1425 21.7387C49.1221 21.7387 48.9579 21.75 48.9375 21.75H43.5V29C43.5 29.3421 43.3063 29.6559 42.9993 29.81L34.8034 33.9085C35.6666 35.6541 36.25 38.3412 36.25 40.7812C36.25 49.2456 29.5981 58 18.466 58ZM18.466 22.8828C9.2834 22.8828 1.8125 30.3526 1.8125 39.534C1.8125 48.7166 9.2834 56.1875 18.466 56.1875C28.463 56.1875 34.4375 48.3541 34.4375 40.7812C34.4375 37.8937 33.5924 35.1625 32.7949 34.0625C32.6397 33.8462 32.5865 33.5732 32.6499 33.316C32.7134 33.0577 32.8878 32.8391 33.1257 32.7213L41.6875 28.4404V20.8438C41.6875 20.343 42.093 19.9375 42.5938 19.9375H48.9375V11.7812C48.9375 11.2805 49.343 10.875 49.8438 10.875H56.1875V2.66211C56.1875 2.19313 55.8069 1.8125 55.3379 1.8125H48.3145C48.1094 1.8125 47.9078 1.8884 47.7503 2.0266L23.5149 23.2725C23.302 23.4594 23.0131 23.5387 22.7321 23.4775C20.9287 23.1003 19.3734 22.8828 18.466 22.8828ZM15.4062 48.9375C11.9081 48.9375 9.0625 46.0919 9.0625 42.5938C9.0625 39.0956 11.9081 36.25 15.4062 36.25C18.9044 36.25 21.75 39.0956 21.75 42.5938C21.75 46.0919 18.9044 48.9375 15.4062 48.9375ZM15.4062 38.0625C12.9084 38.0625 10.875 40.0959 10.875 42.5938C10.875 45.0916 12.9084 47.125 15.4062 47.125C17.9041 47.125 19.9375 45.0916 19.9375 42.5938C19.9375 40.0959 17.9041 38.0625 15.4062 38.0625Z" fill="#121212"/>
</svg>
