<svg width="62" height="58" viewBox="0 0 62 58" fill="none" xmlns="http://www.w3.org/2000/svg">
<g clip-path="url(#clip0_130_859)">
<path d="M61.6279 55.2812C61.6279 56.78 60.4079 58 58.9092 58H2.72168C1.22297 58 0.00292969 56.78 0.00292969 55.2812V20.8438C0.00292969 20.343 0.408477 19.9375 0.90918 19.9375C1.40988 19.9375 1.81543 20.343 1.81543 20.8438V55.2812C1.81543 55.782 2.22098 56.1875 2.72168 56.1875H58.9092C59.4099 56.1875 59.8154 55.782 59.8154 55.2812V20.8438C59.8154 20.343 60.221 19.9375 60.7217 19.9375C61.2224 19.9375 61.6279 20.343 61.6279 20.8438V55.2812ZM8.15918 41.6875H10.8779V32.625H8.15918C7.65848 32.625 7.25293 32.2195 7.25293 31.7188C7.25293 31.218 7.65848 30.8125 8.15918 30.8125H10.8779V22.6562C10.8779 22.1555 11.2835 21.75 11.7842 21.75C12.2849 21.75 12.6904 22.1555 12.6904 22.6562V30.8125H23.5654V22.6562C23.5654 22.1555 23.971 21.75 24.4717 21.75C24.9724 21.75 25.3779 22.1555 25.3779 22.6562V30.8125H36.2529V22.6562C36.2529 22.1555 36.6585 21.75 37.1592 21.75C37.6599 21.75 38.0654 22.1555 38.0654 22.6562V30.8125H48.9404V22.6562C48.9404 22.1555 49.346 21.75 49.8467 21.75C50.3474 21.75 50.7529 22.1555 50.7529 22.6562V30.8125H53.4717C53.9724 30.8125 54.3779 31.218 54.3779 31.7188C54.3779 32.2195 53.9724 32.625 53.4717 32.625H50.7529V41.6875H53.4717C53.9724 41.6875 54.3779 42.093 54.3779 42.5938C54.3779 43.0945 53.9724 43.5 53.4717 43.5H50.7529V49.8438C50.7529 50.3445 50.3474 50.75 49.8467 50.75C49.346 50.75 48.9404 50.3445 48.9404 49.8438V43.5H38.0654V49.8438C38.0654 50.3445 37.6599 50.75 37.1592 50.75C36.6585 50.75 36.2529 50.3445 36.2529 49.8438V43.5H25.3779V49.8438C25.3779 50.3445 24.9724 50.75 24.4717 50.75C23.971 50.75 23.5654 50.3445 23.5654 49.8438V43.5H12.6904V49.8438C12.6904 50.3445 12.2849 50.75 11.7842 50.75C11.2835 50.75 10.8779 50.3445 10.8779 49.8438V43.5H8.15918C7.65848 43.5 7.25293 43.0945 7.25293 42.5938C7.25293 42.093 7.65848 41.6875 8.15918 41.6875ZM48.9404 32.625H38.0654V41.6875H48.9404V32.625ZM36.2529 32.625H25.3779V41.6875H36.2529V32.625ZM12.6904 32.625V41.6875H23.5654V32.625H12.6904ZM51.6592 5.4375C51.1585 5.4375 50.7529 5.03195 50.7529 4.53125C50.7529 4.03055 51.1585 3.625 51.6592 3.625H59.3623C60.4566 3.625 61.6279 4.33867 61.6279 6.34375V15.4062C61.6279 15.907 61.2224 16.3125 60.7217 16.3125H0.90918C0.408477 16.3125 0.00292969 15.907 0.00292969 15.4062V6.34375C0.00292969 4.84504 1.22297 3.625 2.72168 3.625H9.97168C10.4724 3.625 10.8779 4.03055 10.8779 4.53125C10.8779 5.03195 10.4724 5.4375 9.97168 5.4375H2.72168C2.22098 5.4375 1.81543 5.84305 1.81543 6.34375V14.5H59.8154V6.34375C59.8154 5.4375 59.5198 5.4375 59.3623 5.4375H51.6592ZM40.7842 5.4375H20.8467C20.346 5.4375 19.9404 5.03195 19.9404 4.53125C19.9404 4.03055 20.346 3.625 20.8467 3.625H40.7842C41.2849 3.625 41.6904 4.03055 41.6904 4.53125C41.6904 5.03195 41.2849 5.4375 40.7842 5.4375ZM16.3154 8.15625C16.3154 8.65695 15.9099 9.0625 15.4092 9.0625C14.9085 9.0625 14.5029 8.65695 14.5029 8.15625V0.90625C14.5029 0.405548 14.9085 0 15.4092 0C15.9099 0 16.3154 0.405548 16.3154 0.90625V8.15625ZM46.2217 9.0625C45.721 9.0625 45.3154 8.65695 45.3154 8.15625V0.90625C45.3154 0.405548 45.721 0 46.2217 0C46.7224 0 47.1279 0.405548 47.1279 0.90625V8.15625C47.1279 8.65695 46.7224 9.0625 46.2217 9.0625Z" fill="#121212"/>
</g>
<defs>
<clipPath id="clip0_130_859">
<rect width="61.63" height="58" fill="white" transform="matrix(1 0 0 -1 0 58)"/>
</clipPath>
</defs>
</svg>
