<svg width="62" height="58" viewBox="0 0 62 58" fill="none" xmlns="http://www.w3.org/2000/svg">
<g clip-path="url(#clip0_130_872)">
<path d="M45.8768 1.81274H15.0643C14.5636 1.81274 14.158 1.4072 14.158 0.906494C14.158 0.405792 14.5636 0.000244141 15.0643 0.000244141H45.8768C46.3775 0.000244141 46.783 0.405792 46.783 0.906494C46.783 1.4072 46.3775 1.81274 45.8768 1.81274ZM45.8768 3.62524H49.5018C55.4524 3.62524 58.2255 5.73907 59.5045 7.51306C61.0712 9.68806 61.3646 12.5937 60.3314 15.6942C59.0502 19.5333 53.197 26.3789 50.058 28.8122C49.8915 28.9391 49.6955 29.0002 49.5018 29.0002C49.2322 29.0002 48.9637 28.8802 48.7836 28.6502C48.4777 28.2537 48.5502 27.6839 48.9456 27.3781C51.7787 25.1849 57.4677 18.5478 58.6096 15.1199C59.4558 12.5858 59.2507 10.2613 58.033 8.5711C56.5558 6.52185 53.6071 5.43774 49.5018 5.43774H46.783V22.6565C46.783 34.8909 33.1553 41.912 30.4105 43.2034C30.4433 43.2975 30.4705 43.3949 30.4705 43.5002V48.0315C30.4705 48.5322 30.065 48.9377 29.5643 48.9377C29.0636 48.9377 28.658 48.5322 28.658 48.0315V43.5002C28.658 43.3858 28.6852 43.2793 28.7237 43.1774C26.2531 41.8713 14.158 34.8478 14.158 22.6565V5.43774H11.4393C7.33395 5.43774 4.38524 6.52185 2.90805 8.5711C1.69028 10.2613 1.48524 12.5858 2.33145 15.1188C3.79391 19.5061 8.9618 25.0275 11.9955 27.3758C12.3908 27.6839 12.4633 28.2537 12.1575 28.6491C11.9773 28.8802 11.7089 29.0002 11.4393 29.0002C11.2456 29.0002 11.0496 28.9391 10.8831 28.8099C7.5809 26.2509 2.20797 20.4883 0.609576 15.6931C-0.423549 12.5915 -0.13015 9.68579 1.43653 7.51079C2.71547 5.73907 5.4886 3.62524 11.4393 3.62524H15.0643H45.8768ZM44.9705 22.6565V5.43774H15.9705V22.6565C15.9705 33.6697 27.3643 40.3793 29.5892 41.5847C32.0077 40.4258 44.9705 33.7003 44.9705 22.6565ZM19.5955 50.7502H39.533C41.5653 50.7502 43.158 52.403 43.158 54.5112V57.094C43.158 57.5947 42.7525 58.0002 42.2518 58.0002H16.8768C16.3761 58.0002 15.9705 57.5947 15.9705 57.094V54.3752C15.9705 52.309 17.527 50.7502 19.5955 50.7502ZM41.3455 54.5112C41.3455 53.3999 40.5661 52.5627 39.533 52.5627H19.5955C18.5284 52.5627 17.783 53.3081 17.783 54.3752V56.1877H41.3455V54.5112Z" fill="#121212"/>
</g>
<defs>
<clipPath id="clip0_130_872">
<rect width="61.63" height="58" fill="white" transform="matrix(1 0 0 -1 0 58.0002)"/>
</clipPath>
</defs>
</svg>
