<svg width="30" height="29" viewBox="0 0 30 29" fill="none" xmlns="http://www.w3.org/2000/svg">
<g clip-path="url(#clip0_2_368)">
<path d="M9.26562 14.2266C7.57812 14.2786 6.19792 14.9453 5.125 16.2266H3.03125C2.17708 16.2266 1.45833 16.0156 0.875 15.5938C0.291667 15.1719 0 14.5547 0 13.7422C0 10.0651 0.645833 8.22656 1.9375 8.22656C2 8.22656 2.22656 8.33594 2.61719 8.55469C3.00781 8.77344 3.51562 8.99479 4.14062 9.21875C4.76562 9.44271 5.38542 9.55469 6 9.55469C6.69792 9.55469 7.39062 9.4349 8.07812 9.19531C8.02604 9.58073 8 9.92448 8 10.2266C8 11.6745 8.42188 13.0078 9.26562 14.2266ZM26 24.1797C26 25.4297 25.6198 26.4167 24.8594 27.1406C24.099 27.8646 23.0885 28.2266 21.8281 28.2266H8.17188C6.91146 28.2266 5.90104 27.8646 5.14062 27.1406C4.38021 26.4167 4 25.4297 4 24.1797C4 23.6276 4.01823 23.0885 4.05469 22.5625C4.09115 22.0365 4.16406 21.4688 4.27344 20.8594C4.38281 20.25 4.52083 19.6849 4.6875 19.1641C4.85417 18.6432 5.07812 18.1354 5.35938 17.6406C5.64062 17.1458 5.96354 16.724 6.32812 16.375C6.69271 16.026 7.13802 15.7474 7.66406 15.5391C8.1901 15.3307 8.77083 15.2266 9.40625 15.2266C9.51042 15.2266 9.73438 15.3385 10.0781 15.5625C10.4219 15.7865 10.8021 16.0365 11.2188 16.3125C11.6354 16.5885 12.1927 16.8385 12.8906 17.0625C13.5885 17.2865 14.2917 17.3984 15 17.3984C15.7083 17.3984 16.4115 17.2865 17.1094 17.0625C17.8073 16.8385 18.3646 16.5885 18.7812 16.3125C19.1979 16.0365 19.5781 15.7865 19.9219 15.5625C20.2656 15.3385 20.4896 15.2266 20.5938 15.2266C21.2292 15.2266 21.8099 15.3307 22.3359 15.5391C22.862 15.7474 23.3073 16.026 23.6719 16.375C24.0365 16.724 24.3594 17.1458 24.6406 17.6406C24.9219 18.1354 25.1458 18.6432 25.3125 19.1641C25.4792 19.6849 25.6172 20.25 25.7266 20.8594C25.8359 21.4688 25.9089 22.0365 25.9453 22.5625C25.9818 23.0885 26 23.6276 26 24.1797ZM8.82812 1.39844C8.82812 1.39844 9.02344 1.59375 9.41406 1.98438C9.80469 2.375 10 3.1224 10 4.22656C10 5.33073 9.60938 6.27344 8.82812 7.05469C8.04688 7.83594 7.10417 8.22656 6 8.22656C4.89583 8.22656 3.95312 7.83594 3.17188 7.05469C2.39062 6.27344 2 5.33073 2 4.22656C2 3.1224 2.39062 2.17969 3.17188 1.39844C3.95312 0.617188 4.89583 0.226562 6 0.226562C7.10417 0.226562 8.04688 0.617188 8.82812 1.39844ZM19.2422 5.98438C19.2422 5.98438 19.5352 6.27734 20.1211 6.86328C20.707 7.44922 21 8.57031 21 10.2266C21 11.8828 20.4141 13.2969 19.2422 14.4688C18.0703 15.6406 16.6562 16.2266 15 16.2266C13.3438 16.2266 11.9297 15.6406 10.7578 14.4688C9.58594 13.2969 9 11.8828 9 10.2266C9 8.57031 9.58594 7.15625 10.7578 5.98438C11.9297 4.8125 13.3438 4.22656 15 4.22656C16.6562 4.22656 18.0703 4.8125 19.2422 5.98438ZM30 13.7422C30 14.5547 29.7083 15.1719 29.125 15.5938C28.5417 16.0156 27.8229 16.2266 26.9688 16.2266H24.875C23.8021 14.9453 22.4219 14.2786 20.7344 14.2266C21.5781 13.0078 22 11.6745 22 10.2266C22 9.92448 21.974 9.58073 21.9219 9.19531C22.6094 9.4349 23.3021 9.55469 24 9.55469C24.6146 9.55469 25.2344 9.44271 25.8594 9.21875C26.4844 8.99479 26.9922 8.77344 27.3828 8.55469C27.7734 8.33594 28 8.22656 28.0625 8.22656C29.3542 8.22656 30 10.0651 30 13.7422ZM26.8281 1.39844C26.8281 1.39844 27.0234 1.59375 27.4141 1.98438C27.8047 2.375 28 3.1224 28 4.22656C28 5.33073 27.6094 6.27344 26.8281 7.05469C26.0469 7.83594 25.1042 8.22656 24 8.22656C22.8958 8.22656 21.9531 7.83594 21.1719 7.05469C20.3906 6.27344 20 5.33073 20 4.22656C20 3.1224 20.3906 2.17969 21.1719 1.39844C21.9531 0.617188 22.8958 0.226562 24 0.226562C25.1042 0.226562 26.0469 0.617188 26.8281 1.39844Z" fill="#FBBE3F"/>
</g>
<defs>
<clipPath id="clip0_2_368">
<rect width="30" height="29" fill="white" transform="matrix(1 0 0 -1 0 29)"/>
</clipPath>
</defs>
</svg>
